<?xml version="1.0" encoding="UTF-8"?>
<!-- Generator: visioncortex VTracer 0.6.3 -->
<svg version="1.1" xmlns="http://www.w3.org/2000/svg" width="1280" height="1280">
<path d="M0 0 C422.4 0 844.8 0 1280 0 C1280 422.4 1280 844.8 1280 1280 C857.6 1280 435.2 1280 0 1280 C0 857.6 0 435.2 0 0 Z " fill="#FCFCFC" transform="translate(0,0)"/>
<path d="M0 0 C1.29 -0 2.59 -0.01 3.92 -0.01 C5.38 -0.01 6.84 -0 8.3 -0 C9.84 -0 11.38 -0.01 12.92 -0.01 C17.18 -0.01 21.45 -0.01 25.72 -0.01 C30.35 -0.01 34.98 -0.01 39.6 -0.01 C47.73 -0.02 55.85 -0.02 63.98 -0.02 C76.06 -0.02 88.14 -0.02 100.22 -0.03 C123.05 -0.04 145.88 -0.04 168.71 -0.04 C186.33 -0.04 203.96 -0.04 221.58 -0.05 C226.64 -0.05 231.71 -0.05 236.77 -0.05 C238.66 -0.05 238.66 -0.05 240.59 -0.05 C276.02 -0.06 311.46 -0.06 346.89 -0.06 C348.24 -0.06 349.59 -0.06 350.94 -0.06 C357.04 -0.06 363.14 -0.06 369.24 -0.06 C371.96 -0.06 374.68 -0.06 377.39 -0.06 C378.76 -0.06 380.12 -0.06 381.48 -0.06 C424.53 -0.06 467.57 -0.07 510.62 -0.08 C521.47 -0.08 532.32 -0.09 543.16 -0.09 C544.17 -0.09 544.17 -0.09 545.19 -0.09 C581.22 -0.1 617.25 -0.1 653.28 -0.1 C658.34 -0.1 663.41 -0.1 668.48 -0.1 C670.35 -0.1 670.35 -0.1 672.26 -0.1 C692.37 -0.1 712.49 -0.11 732.61 -0.12 C752.81 -0.13 773.01 -0.13 793.21 -0.12 C805.23 -0.12 817.25 -0.12 829.26 -0.13 C837.28 -0.13 845.29 -0.13 853.3 -0.13 C857.88 -0.12 862.45 -0.12 867.03 -0.13 C871.18 -0.14 875.33 -0.13 879.49 -0.13 C880.99 -0.12 882.49 -0.12 883.99 -0.13 C886.02 -0.14 888.04 -0.13 890.06 -0.12 C891.19 -0.12 892.31 -0.12 893.47 -0.12 C896.09 0.13 896.09 0.13 898.09 2.13 C898.41 8.94 897.82 15.66 897.22 22.44 C897.08 24.02 897.08 24.02 896.95 25.64 C896.32 32.87 895.6 40.09 894.84 47.3 C894.14 54.19 893.68 61.09 893.22 68 C892.49 78.81 891.46 89.55 890.28 100.31 C888.14 119.82 886.44 139.36 884.76 158.91 C884.65 160.11 884.55 161.3 884.44 162.54 C884.25 164.78 884.06 167.03 883.87 169.27 C883.46 174.04 883.03 178.79 882.54 183.55 C882.21 186.87 881.95 190.16 881.85 193.49 C881.82 194.4 881.78 195.31 881.75 196.24 C881.69 198.07 881.63 199.91 881.58 201.74 C881.41 206.31 881.04 210.69 880.19 215.18 C878.62 224.36 877.99 233.63 877.23 242.9 C877.06 244.93 876.88 246.97 876.71 249 C876.35 253.25 875.99 257.5 875.63 261.74 C874.87 270.87 874.07 279.99 873.28 289.11 C872.94 293.07 872.6 297.02 872.25 300.98 C872.08 302.95 871.91 304.93 871.74 306.9 C871.31 311.91 870.87 316.91 870.44 321.91 C870.01 326.91 869.58 331.91 869.15 336.91 C868.99 338.77 868.82 340.63 868.67 342.49 C867.81 352.42 866.88 362.35 865.81 372.27 C865.07 379.26 864.44 386.26 863.86 393.26 C863.61 396.24 863.36 399.21 863.11 402.18 C862.97 403.76 862.84 405.34 862.71 406.92 C861.96 415.77 861.19 424.62 860.41 433.46 C860.27 435.11 860.12 436.75 859.98 438.39 C859.61 442.57 859.25 446.75 858.88 450.93 C858.65 453.55 858.42 456.17 858.19 458.79 C856.42 479.05 854.64 499.31 852.84 519.56 C852.77 520.36 852.7 521.16 852.63 521.98 C851.6 533.6 850.54 545.22 849.48 556.84 C848.11 571.89 846.76 586.93 845.41 601.98 C845.16 604.84 844.9 607.71 844.64 610.58 C843.38 624.67 842.12 638.77 840.9 652.86 C839.71 666.55 838.51 680.24 837.3 693.93 C836.91 698.35 836.51 702.78 836.13 707.2 C835.74 711.57 835.36 715.93 834.97 720.3 C834.83 721.93 834.68 723.56 834.54 725.19 C833.71 734.7 832.8 744.2 831.77 753.69 C831.05 760.32 830.57 766.96 830.16 773.63 C829.56 782.56 828.78 791.43 827.72 800.31 C825.64 818 824.36 835.75 822.95 853.5 C821.84 867.38 820.68 881.26 819.52 895.14 C819.23 898.52 818.95 901.9 818.67 905.28 C818.14 911.56 817.62 917.84 817.09 924.13 C807.73 928.42 807.73 928.42 802.87 929.76 C801.54 930.13 801.54 930.13 800.18 930.51 C798.84 930.88 798.84 930.88 797.47 931.25 C796.57 931.5 795.66 931.75 794.74 932.01 C792.98 932.5 791.22 932.99 789.46 933.47 C787.49 934.02 785.54 934.58 783.58 935.16 C779.06 936.42 774.49 937.45 769.91 938.5 C763.09 940.09 756.43 941.8 749.86 944.23 C747.53 944.98 745.3 945.54 742.91 946.05 C737.79 947.16 732.8 948.62 727.78 950.13 C717.68 953.11 707.55 955.99 697.41 958.81 C696.67 959.02 695.93 959.22 695.17 959.44 C679.41 963.81 663.61 968.02 647.79 972.19 C646.86 972.44 645.93 972.69 644.96 972.94 C643.22 973.4 641.47 973.87 639.72 974.33 C635.45 975.46 631.28 976.72 627.09 978.13 C624.78 978.78 622.46 979.42 620.13 980.04 C618.77 980.41 617.41 980.78 616.05 981.15 C614.99 981.43 614.99 981.43 613.91 981.72 C603.13 984.63 592.37 987.58 581.66 990.75 C572.18 993.55 562.66 996.16 553.11 998.71 C546.61 1000.44 540.14 1002.23 533.69 1004.1 C528.92 1005.46 524.13 1006.76 519.34 1008.06 C517.43 1008.59 515.51 1009.11 513.59 1009.63 C508.29 1011.07 508.29 1011.07 505.78 1011.75 C495.95 1014.43 486.17 1017.28 476.41 1020.19 C456.23 1026.2 456.23 1026.2 448.09 1028.13 C447.04 1028.39 445.98 1028.64 444.9 1028.91 C443.97 1028.98 443.05 1029.05 442.09 1029.13 C440.5 1027.74 440.5 1027.74 439.09 1026.13 C437.04 1025.54 437.04 1025.54 434.66 1025.31 C429.28 1024.46 424.22 1023.05 419.03 1021.44 C411.32 1019.06 403.58 1016.88 395.78 1014.81 C384.42 1011.8 373.13 1008.56 361.85 1005.23 C355.21 1003.28 348.57 1001.46 341.85 999.81 C337.67 998.77 333.54 997.58 329.41 996.38 C327.58 995.85 325.75 995.32 323.92 994.8 C322.97 994.53 322.03 994.25 321.05 993.97 C301.93 988.5 282.76 983.2 263.53 978.13 C256.71 976.32 249.93 974.37 243.15 972.41 C236.36 970.46 229.54 968.65 222.7 966.88 C218.23 965.72 213.81 964.46 209.41 963.06 C204.84 961.62 200.25 960.38 195.59 959.25 C187.5 957.28 179.5 955 171.49 952.69 C170.2 952.32 170.2 952.32 168.89 951.94 C166.92 951.37 164.96 950.8 163 950.22 C152.23 947.11 141.39 944.29 130.54 941.48 C121.64 939.17 112.79 936.8 104.01 934.03 C101.17 933.15 98.31 932.33 95.44 931.53 C94.12 931.16 94.12 931.16 92.78 930.79 C91 930.3 89.23 929.81 87.45 929.33 C86.58 929.08 85.71 928.84 84.82 928.59 C84.05 928.38 83.29 928.17 82.5 927.95 C81.7 927.68 80.91 927.41 80.09 927.13 C78.51 926.7 78.51 926.7 76.9 926.27 C73.57 923.73 73.57 923.05 73.02 919.06 C72.83 916.85 72.68 914.64 72.56 912.43 C72.46 911.24 72.37 910.04 72.28 908.81 C72.03 905.55 71.81 902.3 71.6 899.04 C71.38 895.63 71.12 892.23 70.86 888.83 C70.45 883.27 70.05 877.72 69.66 872.17 C68.93 861.65 68.08 851.15 67.22 840.64 C66.97 837.57 66.72 834.5 66.48 831.43 C65.56 820.19 64.5 808.99 63.17 797.79 C62.02 787.98 61.24 778.14 60.47 768.29 C59.46 755.35 58.31 742.42 57.09 729.5 C55.9 716.86 54.73 704.22 53.66 691.56 C53.6 690.89 53.54 690.23 53.48 689.54 C53.24 686.65 52.99 683.76 52.75 680.87 C51.71 668.54 50.65 656.21 49.59 643.88 C49.49 642.6 49.38 641.33 49.26 640.02 C47.97 624.92 46.62 609.82 45.12 594.73 C44.04 583.88 43.14 573.02 42.27 562.16 C41.21 548.94 39.95 535.74 38.7 522.54 C37.66 511.5 36.63 500.46 35.61 489.42 C35.29 485.98 34.97 482.54 34.64 479.1 C33.24 464.05 31.89 448.99 30.76 433.92 C30.13 425.48 29.39 417.05 28.59 408.63 C27.67 398.7 26.82 388.76 26.09 378.81 C25.47 370.31 24.67 361.85 23.72 353.38 C22.42 341.66 21.35 329.93 20.34 318.19 C18.58 297.59 16.75 277 14.89 256.41 C14.57 252.89 14.25 249.38 13.93 245.86 C13.56 241.68 13.18 237.49 12.8 233.3 C12.66 231.74 12.51 230.18 12.37 228.62 C12.18 226.46 11.98 224.3 11.79 222.15 C11.62 220.32 11.62 220.32 11.45 218.46 C11.22 216.28 10.92 214.1 10.56 211.94 C10.06 208.89 9.94 205.9 9.85 202.81 C9.52 191.19 8.42 179.68 7.22 168.13 C5.84 154.84 4.6 141.57 3.59 128.25 C2.5 113.71 1.19 99.2 -0.23 84.69 C-1.4 72.66 -2.48 60.64 -3.31 48.58 C-3.38 47.64 -3.44 46.7 -3.51 45.73 C-3.56 44.93 -3.62 44.13 -3.67 43.3 C-3.85 41.15 -3.85 41.15 -4.4 39.2 C-5.57 34.43 -5.6 29.38 -5.97 24.5 C-6.1 22.79 -6.1 22.79 -6.24 21.05 C-7.32 6.92 -7.32 6.92 -6.91 1.13 C-5.11 -0.67 -2.42 0 0 0 Z " fill="#E04C26" transform="translate(193.90554755926132,250.87350016832352)"/>
<path d="M0 0 C0.91 0 1.81 0 2.75 0.01 C4.18 0 4.18 0 5.65 0 C8.9 -0 12.15 -0 15.41 0 C17.74 -0 20.08 -0 22.42 -0.01 C28.2 -0.01 33.98 -0.01 39.76 -0.01 C46.68 -0.01 53.6 -0.01 60.52 -0.02 C74.86 -0.03 89.21 -0.03 103.55 -0.03 C114.63 -0.03 125.7 -0.03 136.78 -0.04 C139.96 -0.04 143.15 -0.04 146.33 -0.04 C147.12 -0.04 147.91 -0.04 148.73 -0.04 C171 -0.05 193.27 -0.05 215.54 -0.05 C216.38 -0.05 217.22 -0.05 218.08 -0.05 C222.34 -0.05 226.6 -0.05 230.86 -0.05 C231.71 -0.05 232.55 -0.05 233.42 -0.05 C235.13 -0.05 236.84 -0.05 238.56 -0.05 C265.18 -0.05 291.8 -0.06 318.43 -0.07 C348.31 -0.09 378.2 -0.09 408.09 -0.09 C411.27 -0.09 414.45 -0.09 417.64 -0.09 C418.42 -0.09 419.2 -0.09 420.01 -0.09 C432.65 -0.09 445.3 -0.1 457.94 -0.11 C470.63 -0.12 483.33 -0.12 496.03 -0.11 C502.91 -0.11 509.79 -0.11 516.68 -0.12 C522.97 -0.12 529.26 -0.12 535.55 -0.11 C537.84 -0.11 540.13 -0.12 542.41 -0.12 C545.5 -0.13 548.59 -0.12 551.68 -0.11 C553.03 -0.12 553.03 -0.12 554.42 -0.13 C560.55 -0.09 560.55 -0.09 562.77 2.13 C562.87 4.22 562.87 4.22 562.64 6.84 C562.52 8.33 562.52 8.33 562.39 9.85 C562.29 10.94 562.19 12.04 562.09 13.17 C561.99 14.32 561.89 15.46 561.79 16.65 C561.46 20.48 561.12 24.31 560.77 28.13 C560.6 30.14 560.42 32.14 560.25 34.14 C559.51 42.58 558.74 51.02 557.97 59.47 C557.71 62.37 557.44 65.28 557.18 68.19 C554.88 93.62 554.88 93.62 553.65 105.04 C553.57 105.76 553.5 106.48 553.42 107.21 C552.9 111.89 552.9 111.89 551.77 114.13 C408.88 114.13 265.99 114.13 118.77 114.13 C119.34 124.19 119.34 124.19 120.77 134.13 C120.95 135.77 121.1 137.41 121.22 139.05 C121.3 140.01 121.37 140.96 121.45 141.94 C121.52 142.96 121.6 143.98 121.68 145.03 C121.85 147.23 122.02 149.42 122.19 151.62 C122.45 155.05 122.71 158.48 122.97 161.92 C123.84 173.37 124.73 184.77 126.36 196.15 C126.9 200.05 127.19 203.9 127.4 207.82 C127.44 208.52 127.48 209.22 127.51 209.94 C127.82 216.01 127.88 222.06 127.77 228.13 C131.22 229.28 133.89 229.26 137.53 229.27 C138.22 229.27 138.91 229.28 139.63 229.28 C141.97 229.29 144.31 229.29 146.65 229.29 C148.34 229.29 150.03 229.29 151.71 229.3 C156.37 229.31 161.02 229.32 165.67 229.32 C170.68 229.33 175.7 229.34 180.71 229.35 C189.4 229.37 198.09 229.38 206.78 229.4 C219.34 229.41 231.91 229.44 244.47 229.46 C264.86 229.51 285.25 229.55 305.63 229.58 C307.47 229.59 307.47 229.59 309.33 229.59 C319.24 229.61 329.15 229.62 339.06 229.64 C347.72 229.66 356.38 229.67 365.04 229.69 C366.87 229.69 366.87 229.69 368.74 229.69 C389.05 229.73 409.36 229.77 429.67 229.81 C442.21 229.84 454.75 229.86 467.29 229.88 C475.88 229.89 484.46 229.91 493.05 229.93 C498.01 229.94 502.97 229.95 507.93 229.95 C512.46 229.96 517 229.97 521.53 229.98 C523.18 229.98 524.83 229.98 526.47 229.98 C528.7 229.98 530.92 229.99 533.15 230 C535.01 230 535.01 230 536.91 230.01 C539.77 230.13 539.77 230.13 541.77 231.13 C541.99 239.69 541.15 248.12 540.35 256.63 C540.2 258.26 540.05 259.89 539.9 261.52 C539.5 265.81 539.11 270.11 538.7 274.41 C538.07 281.16 537.45 287.92 536.83 294.68 C536.68 296.35 536.52 298.02 536.37 299.7 C535.52 308.87 534.69 318.05 533.91 327.24 C533.81 328.45 533.81 328.45 533.7 329.69 C533.38 333.53 533.06 337.37 532.74 341.2 C532.63 342.57 532.51 343.94 532.4 345.3 C532.3 346.48 532.2 347.66 532.1 348.88 C531.79 352 531.31 355.05 530.77 358.13 C530.58 360.46 530.42 362.78 530.27 365.11 C530.15 367.07 530.15 367.07 530.02 369.08 C529.9 371.14 529.77 373.21 529.65 375.27 C529.53 377.28 529.4 379.29 529.27 381.3 C529.2 382.49 529.13 383.68 529.06 384.91 C528.81 387.73 528.35 390.37 527.77 393.13 C527.61 394.68 527.48 396.22 527.38 397.76 C527.28 399.15 527.28 399.15 527.18 400.57 C527.11 401.6 527.04 402.63 526.96 403.7 C526.11 415.33 525.09 426.95 524.02 438.57 C523.68 442.38 523.33 446.18 522.98 449.98 C522.88 451 522.79 452.01 522.69 453.06 C521.57 465.37 520.46 477.67 519.36 489.98 C518.97 494.33 518.58 498.67 518.18 503.01 C516.93 516.83 515.71 530.64 514.68 544.48 C514.43 547.66 514.18 550.85 513.94 554.03 C513.72 556.93 513.52 559.84 513.33 562.75 C513.2 564.48 513.06 566.21 512.93 567.94 C512.88 568.71 512.84 569.47 512.8 570.27 C512.47 574.11 511.86 576.03 509.44 579.07 C506.08 581.67 502.86 582.4 498.77 583.13 C497.27 583.44 495.77 583.75 494.27 584.07 C493.6 584.21 492.93 584.34 492.24 584.47 C489.56 585.15 489.56 585.15 486.24 586.49 C480.86 588.55 475.33 590.04 469.77 591.57 C468.66 591.88 467.55 592.19 466.4 592.51 C460.52 594.14 454.64 595.7 448.71 597.13 C440.83 599.05 433.06 601.35 425.28 603.67 C420.14 605.2 415.01 606.58 409.76 607.7 C406.98 608.31 404.26 609.09 401.52 609.88 C400.33 610.23 399.13 610.58 397.9 610.94 C396.92 611.22 396.92 611.22 395.92 611.51 C393.55 612.2 391.18 612.88 388.8 613.55 C387.93 613.8 387.06 614.05 386.16 614.3 C385.27 614.56 384.38 614.81 383.46 615.07 C377.6 616.74 371.75 618.43 365.91 620.18 C360.52 621.8 355.15 623.32 349.65 624.51 C342.47 626.08 335.53 628.33 328.52 630.51 C321.23 632.76 313.93 634.62 306.47 636.21 C303.05 637.07 299.92 638.15 296.66 639.42 C294.11 640.39 291.53 641.13 288.9 641.82 C287.97 642.07 287.05 642.33 286.09 642.58 C276.24 644.22 267.95 642.11 258.55 639.26 C255.44 638.32 252.32 637.41 249.2 636.49 C247.62 636.03 246.04 635.56 244.47 635.1 C237.81 633.13 231.11 631.29 224.4 629.51 C222.3 628.95 220.21 628.39 218.11 627.83 C216.56 627.41 216.56 627.41 214.97 626.99 C197.04 622.18 179.19 617.11 161.36 611.91 C151.16 608.94 140.94 606.07 130.65 603.38 C116.27 599.62 101.99 595.51 87.71 591.38 C86.57 591.06 85.43 590.73 84.26 590.39 C77.96 588.57 71.67 586.74 65.38 584.89 C63.1 584.23 60.82 583.58 58.54 582.93 C57.4 582.6 56.26 582.27 55.09 581.93 C54.18 581.67 53.27 581.41 52.33 581.15 C48.97 579.81 46.52 578.52 43.77 576.13 C43.04 573.28 42.74 571.16 42.64 568.27 C42.59 567.49 42.54 566.71 42.49 565.91 C42.33 563.36 42.21 560.81 42.09 558.26 C41.93 555.59 41.76 552.92 41.59 550.25 C41.48 548.46 41.37 546.66 41.26 544.86 C40.8 537.01 40.05 529.21 39.21 521.38 C38.23 512.04 37.42 502.7 36.77 493.32 C36.18 484.66 35.36 476.06 34.27 467.45 C31.51 445.37 30.34 423.36 29.77 401.13 C32.69 400.3 35.3 400 38.34 399.98 C39.25 399.97 40.16 399.96 41.09 399.95 C42.08 399.95 43.07 399.95 44.09 399.94 C45.14 399.93 46.19 399.93 47.27 399.92 C50.74 399.89 54.21 399.88 57.68 399.86 C59.46 399.85 59.46 399.85 61.27 399.85 C67.53 399.82 73.79 399.8 80.05 399.78 C86.53 399.77 93.01 399.72 99.49 399.67 C104.46 399.64 109.44 399.63 114.41 399.62 C116.8 399.61 119.19 399.6 121.58 399.58 C124.91 399.54 128.25 399.54 131.58 399.55 C132.58 399.53 133.57 399.52 134.59 399.5 C137.09 399.52 139.34 399.58 141.77 400.13 C145.05 403.77 145.25 407.27 145.58 412.06 C145.63 412.75 145.69 413.44 145.74 414.15 C145.85 415.65 145.95 417.15 146.05 418.64 C146.21 421.05 146.39 423.45 146.57 425.85 C146.83 429.35 147.09 432.86 147.35 436.37 C148.04 445.8 148.8 455.22 149.58 464.64 C149.84 467.8 150.08 470.96 150.33 474.12 C150.49 476.07 150.65 478.01 150.81 479.96 C150.88 480.86 150.94 481.76 151.01 482.69 C151.23 487.39 151.23 487.39 153.77 491.13 C155.55 491.64 157.35 492.05 159.16 492.43 C164.88 493.68 170.54 495.1 176.2 496.62 C177.04 496.85 177.88 497.07 178.74 497.31 C181.38 498.02 184.01 498.73 186.65 499.45 C190.33 500.44 194.02 501.44 197.7 502.43 C198.59 502.67 199.48 502.91 200.4 503.16 C206.87 504.9 213.35 506.59 219.84 508.26 C230.45 510.99 240.98 513.97 251.51 516.98 C255.26 518.04 259.02 519.09 262.77 520.13 C263.88 520.44 264.98 520.75 266.12 521.07 C267.14 521.35 268.17 521.62 269.23 521.9 C270.11 522.14 271 522.38 271.91 522.63 C278.86 523.85 284.59 522.95 291.25 521.01 C292.44 520.68 292.44 520.68 293.66 520.34 C296.24 519.61 298.82 518.87 301.4 518.13 C303.2 517.63 305 517.12 306.81 516.62 C309.53 515.85 312.26 515.09 314.99 514.32 C322.86 512.1 330.75 509.98 338.65 507.88 C341.05 507.25 343.45 506.61 345.84 505.97 C347.57 505.52 347.57 505.52 349.32 505.05 C362.57 501.53 375.81 497.97 389.02 494.32 C389.73 494.13 390.44 493.93 391.17 493.73 C395.08 492.65 398.94 491.45 402.77 490.13 C404.69 482.16 405.41 474.15 406.04 466 C406.22 463.63 406.41 461.26 406.6 458.89 C406.86 455.58 407.13 452.28 407.39 448.97 C407.97 441.69 408.59 434.41 409.21 427.13 C409.27 426.44 409.33 425.74 409.39 425.02 C409.85 419.73 410.31 414.43 410.77 409.13 C410.85 408.23 410.93 407.33 411.01 406.4 C411.53 400.51 412.05 394.63 412.58 388.74 C412.75 386.82 412.92 384.91 413.09 382.99 C413.94 373.27 414.87 363.6 416.4 353.96 C416.75 351.3 416.92 348.81 416.77 346.13 C414.94 344.3 412.02 345.01 409.57 345 C408.91 345 408.25 345 407.57 345 C405.33 344.99 403.1 345 400.86 345 C399.25 344.99 397.65 344.99 396.04 344.99 C391.6 344.98 387.16 344.98 382.72 344.98 C377.94 344.98 373.15 344.97 368.37 344.96 C360.08 344.95 351.79 344.94 343.5 344.94 C330.41 344.93 317.32 344.9 304.22 344.88 C299.75 344.88 295.27 344.87 290.8 344.86 C289.68 344.86 288.56 344.86 287.41 344.85 C274.67 344.83 261.92 344.81 249.18 344.8 C247.43 344.79 247.43 344.79 245.65 344.79 C226.76 344.77 207.86 344.75 188.97 344.73 C169.6 344.71 150.22 344.68 130.84 344.65 C118.88 344.62 106.92 344.61 94.95 344.61 C86.76 344.6 78.57 344.59 70.38 344.57 C65.64 344.56 60.91 344.55 56.18 344.56 C51.85 344.56 47.52 344.55 43.19 344.53 C41.62 344.53 40.05 344.53 38.48 344.54 C36.36 344.54 34.23 344.53 32.11 344.52 C30.93 344.52 29.74 344.51 28.52 344.51 C27.16 344.33 27.16 344.33 25.77 344.13 C23.1 340.13 22.92 336.6 22.34 331.88 C22.21 330.91 22.09 329.93 21.96 328.92 C20.52 317.04 19.69 305.1 18.86 293.16 C18.37 286.15 17.84 279.19 16.84 272.23 C15.3 261.39 14.55 250.46 13.66 239.56 C13.12 232.95 12.57 226.34 12.01 219.74 C11.91 218.45 11.8 217.17 11.69 215.85 C10.78 205.01 9.75 194.19 8.66 183.37 C8.06 177.37 7.56 171.4 7.27 165.38 C6.94 158.68 6.24 152.05 5.46 145.38 C3.78 130.95 2.52 116.48 1.26 102 C0.28 90.68 -0.78 79.38 -1.91 68.07 C-2.83 58.93 -3.52 49.83 -3.88 40.65 C-4.12 34.96 -4.85 29.44 -5.75 23.81 C-6.35 19.15 -6.66 14.51 -6.91 9.82 C-6.96 8.98 -7.01 8.13 -7.06 7.27 C-7.16 5.22 -7.2 3.18 -7.23 1.13 C-5.33 -0.76 -2.53 0.01 0 0 Z " fill="#FCFCFC" transform="translate(361.2256462275982,439.865137308836)"/>
<path d="M0 0 C1.89 -0.02 1.89 -0.02 3.82 -0.04 C5.22 -0.03 6.61 -0.02 8.01 -0.01 C9.5 -0.01 10.98 -0.02 12.47 -0.03 C16.55 -0.05 20.64 -0.04 24.72 -0.02 C29.12 -0.01 33.53 -0.03 37.93 -0.04 C46.56 -0.07 55.18 -0.06 63.81 -0.05 C70.82 -0.04 77.83 -0.03 84.84 -0.04 C85.84 -0.04 86.84 -0.04 87.86 -0.04 C89.89 -0.04 91.91 -0.05 93.94 -0.05 C112.94 -0.06 131.94 -0.04 150.94 -0.02 C167.25 0 183.56 0 199.87 -0.02 C218.8 -0.05 237.73 -0.06 256.66 -0.04 C258.68 -0.04 260.69 -0.04 262.71 -0.04 C264.2 -0.04 264.2 -0.04 265.72 -0.04 C272.72 -0.03 279.73 -0.04 286.73 -0.05 C295.26 -0.07 303.8 -0.06 312.33 -0.04 C316.68 -0.02 321.04 -0.02 325.39 -0.03 C329.38 -0.05 333.36 -0.04 337.35 -0.01 C338.79 -0.01 340.23 -0.01 341.68 -0.02 C343.64 -0.04 345.59 -0.02 347.55 0 C349.19 0 349.19 0 350.85 0 C354.76 0.84 356.28 2.59 358.78 5.63 C359.34 8.14 359.34 8.14 359.21 10.88 C359.17 11.95 359.12 13.02 359.08 14.12 C358.7 18.47 358.2 22.8 357.63 27.13 C356.52 35.97 356.03 44.85 355.47 53.74 C355.4 54.95 355.32 56.15 355.24 57.39 C355.18 58.48 355.11 59.56 355.04 60.67 C354.78 63.63 354.78 63.63 354.29 65.95 C353.74 68.81 353.46 71.62 353.22 74.53 C353.07 76.28 353.07 76.28 352.93 78.06 C352.83 79.31 352.72 80.56 352.62 81.85 C352.46 83.82 352.29 85.79 352.13 87.76 C351.84 91.22 351.56 94.67 351.28 98.13 C350.94 102.25 350.6 106.38 350.26 110.5 C350.04 113.06 349.83 115.63 349.63 118.2 C349.48 119.94 349.48 119.94 349.33 121.72 C349.25 122.75 349.17 123.77 349.08 124.82 C348.79 127.47 348.33 130.02 347.78 132.63 C347.35 136.37 347.07 140.13 346.78 143.88 C346.69 144.99 346.6 146.11 346.5 147.26 C346.01 153.62 345.68 159.96 345.53 166.34 C345.22 179.25 343.68 191.84 341.93 204.62 C340.37 216.04 339.33 227.25 339.08 238.78 C338.93 245.35 338.36 251.7 337.4 258.19 C335.79 269.14 335.02 280.1 334.28 291.13 C333.48 302.87 332.56 314.49 330.83 326.13 C329.43 336.14 328.99 346.22 328.51 356.31 C328.1 364.59 327.35 372.74 326.26 380.96 C325.62 385.82 325.15 390.69 324.71 395.57 C324.56 397.28 324.4 399 324.24 400.72 C324.17 401.54 324.09 402.37 324.01 403.21 C323.79 405.53 323.52 407.84 323.25 410.16 C322.71 414.85 322.52 419.54 322.34 424.25 C322.02 431.28 321.39 438.15 320.38 445.11 C317.91 462.83 316.63 480.73 315.48 498.58 C315.06 504.93 314.55 511.25 313.78 517.57 C312.8 525.51 312.28 533.46 311.78 541.44 C310.88 555.45 309.9 569.42 308.02 583.34 C306.63 593.65 305.59 603.78 305.34 614.19 C305.07 625.13 303.81 635.76 302.29 646.59 C300.97 656.26 300.22 665.88 299.71 675.63 C299.25 684.67 298.67 693.61 297.34 702.57 C295.72 713.55 294.97 724.56 294.21 735.63 C294.15 736.55 294.09 737.47 294.02 738.41 C293.71 742.89 293.41 747.36 293.1 751.83 C292.69 757.93 292.26 764.03 291.78 770.13 C291.72 770.98 291.66 771.83 291.6 772.71 C291.04 779.49 290.01 786.52 285.97 792.14 C283.23 794 280.88 794.68 277.65 795.44 C276.32 795.77 274.98 796.1 273.65 796.43 C272.89 796.61 272.13 796.8 271.35 796.99 C266.12 798.29 260.92 799.72 255.71 801.13 C254.58 801.44 253.44 801.74 252.26 802.06 C245.53 803.87 238.8 805.73 232.1 807.67 C228.1 808.82 224.1 809.95 220.09 811.07 C219.34 811.28 218.59 811.49 217.81 811.7 C213.82 812.81 209.81 813.89 205.79 814.92 C204.55 815.24 204.55 815.24 203.28 815.56 C201.72 815.97 200.15 816.36 198.58 816.75 C194.57 817.78 190.75 819 186.88 820.5 C178.81 823.5 170.4 825.25 162.03 827.19 C158.74 827.96 155.45 828.73 152.17 829.51 C151.43 829.68 150.69 829.85 149.93 830.02 C145.28 831.12 141.14 832.66 136.78 834.63 C134.58 835.22 134.58 835.22 132.65 835.57 C128.94 836.32 125.39 837.35 121.78 838.5 C116.71 840.1 111.64 841.4 106.46 842.57 C99.38 844.17 92.5 846.19 85.58 848.41 C77.8 850.9 69.95 853.08 62.03 855.11 C61.01 855.37 59.99 855.63 58.94 855.9 C56.92 856.42 54.89 856.93 52.86 857.44 C48.76 858.48 44.8 859.51 40.94 861.25 C37.87 862.59 35.39 863.16 32.09 863.57 C26.81 864.36 22.09 865.78 17.07 867.55 C13.21 868.81 9.34 869.84 5.4 870.82 C4.74 870.98 4.07 871.15 3.38 871.32 C1.52 871.78 -0.35 872.2 -2.22 872.63 C-3.85 873.03 -3.85 873.03 -5.51 873.43 C-8.22 873.63 -8.22 873.63 -9.87 872.42 C-11.58 870.16 -11.59 868.95 -11.58 866.13 C-11.59 864.75 -11.59 864.75 -11.6 863.34 C-11.59 862.33 -11.58 861.32 -11.56 860.28 C-11.56 859.22 -11.56 858.16 -11.57 857.06 C-11.56 853.54 -11.54 850.02 -11.52 846.49 C-11.51 844.05 -11.51 841.61 -11.5 839.17 C-11.49 832.75 -11.46 826.32 -11.43 819.89 C-11.4 813.34 -11.39 806.78 -11.37 800.23 C-11.34 787.36 -11.29 774.5 -11.22 761.63 C-1.77 756.79 8.34 755.2 18.78 753.63 C19.11 752.64 19.44 751.65 19.78 750.63 C18.79 750.63 17.8 750.63 16.78 750.63 C16.78 749.97 16.78 749.31 16.78 748.63 C18.16 748.34 18.16 748.34 19.58 748.04 C29.99 745.75 40.1 742.75 50.26 739.56 C57.36 737.34 64.43 735.41 71.67 733.69 C76.91 732.39 82.05 730.74 87.21 729.13 C94.91 726.73 102.58 724.57 110.46 722.87 C114.08 722.08 117.35 721.02 120.78 719.63 C123.04 719.04 125.31 718.48 127.59 717.94 C134.7 716.23 141.7 714.21 148.71 712.13 C156.25 709.89 163.77 707.84 171.44 706.12 C177.44 704.76 183.36 703.13 189.28 701.44 C190.2 701.18 191.13 700.92 192.09 700.65 C193.37 700.28 193.37 700.28 194.68 699.9 C195.45 699.68 196.22 699.46 197 699.23 C198.78 698.77 198.78 698.77 199.78 697.63 C201.1 697.3 202.44 697.02 203.78 696.75 C213.31 695.08 213.31 695.08 220.78 689.63 C221.24 687.02 221.52 684.61 221.7 681.98 C221.76 681.17 221.83 680.37 221.9 679.54 C222.04 677.74 222.18 675.94 222.31 674.15 C222.61 670.12 222.94 666.1 223.27 662.08 C223.45 659.81 223.64 657.53 223.82 655.26 C224.64 645.05 225.55 634.84 226.48 624.64 C226.56 623.81 226.63 622.98 226.71 622.13 C227.18 617.05 227.64 611.97 228.11 606.89 C229.84 588.04 231.56 569.19 233.23 550.33 C233.36 548.91 233.48 547.48 233.61 546.05 C234.42 536.92 235.16 527.78 235.84 518.63 C236.43 510.69 237.16 502.8 238.1 494.9 C238.58 490.76 238.94 486.63 239.15 482.47 C239.21 481.28 239.21 481.28 239.28 480.07 C239.34 478.78 239.41 477.5 239.48 476.18 C239.72 472.07 240.17 468.01 240.69 463.92 C241.81 454.75 242.63 445.55 243.41 436.34 C243.66 433.39 243.91 430.44 244.17 427.49 C244.71 421.22 245.24 414.96 245.78 408.69 C246.4 401.42 247.02 394.15 247.65 386.88 C247.89 384 248.14 381.13 248.38 378.26 C248.54 376.46 248.69 374.65 248.85 372.85 C248.94 371.69 248.94 371.69 249.04 370.52 C249.54 364.76 250.17 359.02 250.81 353.28 C250.9 352.45 251 351.62 251.09 350.76 C251.32 348.71 251.55 346.67 251.78 344.63 C250.91 344.63 250.04 344.63 249.14 344.63 C197.71 344.54 146.28 344.45 94.85 344.35 C88.68 344.34 82.51 344.32 76.34 344.31 C74.5 344.31 74.5 344.31 72.62 344.3 C52.71 344.26 32.8 344.23 12.89 344.2 C-7.53 344.17 -27.95 344.13 -48.37 344.09 C-60.98 344.06 -73.58 344.04 -86.19 344.02 C-94.83 344.01 -103.46 343.99 -112.1 343.97 C-117.09 343.96 -122.08 343.95 -127.06 343.94 C-131.63 343.94 -136.19 343.93 -140.75 343.92 C-142.4 343.91 -144.06 343.91 -145.72 343.91 C-147.96 343.91 -150.2 343.9 -152.44 343.89 C-153.68 343.89 -154.93 343.89 -156.22 343.88 C-159.22 343.63 -159.22 343.63 -162.22 341.63 C-162.68 338.85 -162.95 336.26 -163.1 333.47 C-163.16 332.64 -163.22 331.82 -163.28 330.97 C-163.46 328.31 -163.62 325.66 -163.79 323 C-164.01 319.55 -164.24 316.1 -164.48 312.65 C-164.56 311.37 -164.56 311.37 -164.65 310.06 C-165.11 303.56 -165.88 297.15 -166.74 290.69 C-167.72 282.91 -168.17 275.07 -168.72 267.25 C-168.96 263.95 -169.2 260.65 -169.44 257.36 C-169.5 256.55 -169.56 255.75 -169.62 254.93 C-170.12 248.33 -170.84 241.77 -171.68 235.21 C-172.33 229.84 -172.33 229.84 -171.22 227.63 C-28.33 227.63 114.56 227.63 261.78 227.63 C266.53 179.43 266.53 179.43 270.51 131.18 C270.85 126.71 271.26 122.25 271.7 117.79 C271.72 117.08 271.75 116.37 271.78 115.63 C270.17 114.02 268.45 114.5 266.22 114.49 C265.23 114.49 264.24 114.48 263.21 114.47 C262.11 114.47 261.01 114.47 259.87 114.47 C258.13 114.46 258.13 114.46 256.36 114.46 C253.12 114.44 249.89 114.44 246.65 114.43 C243.17 114.42 239.68 114.41 236.2 114.39 C230.16 114.37 224.12 114.35 218.08 114.34 C209.34 114.32 200.61 114.29 191.87 114.26 C177.7 114.21 163.53 114.17 149.36 114.13 C135.6 114.09 121.83 114.05 108.06 114 C107.21 114 106.36 114 105.49 113.99 C101.24 113.98 96.98 113.97 92.73 113.95 C57.41 113.84 22.09 113.73 -13.22 113.63 C-12.56 112.97 -11.9 112.31 -11.22 111.63 C-10.94 109.67 -10.94 109.67 -11.02 107.4 C-11.02 106.51 -11.03 105.62 -11.03 104.71 C-11.05 103.73 -11.06 102.76 -11.08 101.75 C-11.08 100.72 -11.09 99.7 -11.1 98.64 C-11.12 96.41 -11.14 94.17 -11.16 91.94 C-11.2 88.41 -11.23 84.87 -11.25 81.34 C-11.31 71.29 -11.38 61.24 -11.49 51.18 C-11.56 45.04 -11.6 38.9 -11.62 32.76 C-11.63 30.41 -11.66 28.07 -11.69 25.73 C-11.74 22.45 -11.75 19.17 -11.76 15.9 C-11.79 14.44 -11.79 14.44 -11.82 12.96 C-11.82 12.06 -11.82 11.16 -11.81 10.24 C-11.82 9.47 -11.83 8.69 -11.83 7.89 C-10.22 1.9 -5.74 0 0 0 Z " fill="#EC6429" transform="translate(651.2235260009766,326.37079429626465)"/>
<path d="M0 0 C0.91 0 1.81 0 2.75 0.01 C4.18 0 4.18 0 5.65 0 C8.9 -0 12.15 -0 15.41 0 C17.74 -0 20.08 -0 22.42 -0.01 C28.2 -0.01 33.98 -0.01 39.76 -0.01 C46.68 -0.01 53.6 -0.01 60.52 -0.02 C74.86 -0.03 89.21 -0.03 103.55 -0.03 C114.63 -0.03 125.7 -0.03 136.78 -0.04 C139.96 -0.04 143.15 -0.04 146.33 -0.04 C147.12 -0.04 147.91 -0.04 148.73 -0.04 C171 -0.05 193.27 -0.05 215.54 -0.05 C216.38 -0.05 217.22 -0.05 218.08 -0.05 C222.34 -0.05 226.6 -0.05 230.86 -0.05 C231.71 -0.05 232.55 -0.05 233.42 -0.05 C235.13 -0.05 236.84 -0.05 238.56 -0.05 C265.18 -0.05 291.8 -0.06 318.43 -0.07 C348.31 -0.09 378.2 -0.09 408.09 -0.09 C411.27 -0.09 414.45 -0.09 417.64 -0.09 C418.42 -0.09 419.2 -0.09 420.01 -0.09 C432.65 -0.09 445.3 -0.1 457.94 -0.11 C470.63 -0.12 483.33 -0.12 496.03 -0.11 C502.91 -0.11 509.79 -0.11 516.68 -0.12 C522.97 -0.12 529.26 -0.12 535.55 -0.11 C537.84 -0.11 540.13 -0.12 542.41 -0.12 C545.5 -0.13 548.59 -0.12 551.68 -0.11 C553.03 -0.12 553.03 -0.12 554.42 -0.13 C560.55 -0.09 560.55 -0.09 562.77 2.13 C562.87 4.22 562.87 4.22 562.64 6.84 C562.52 8.33 562.52 8.33 562.39 9.85 C562.29 10.94 562.19 12.04 562.09 13.17 C561.99 14.32 561.89 15.46 561.79 16.65 C561.46 20.48 561.12 24.31 560.77 28.13 C560.6 30.14 560.42 32.14 560.25 34.14 C559.51 42.58 558.74 51.02 557.97 59.47 C557.71 62.37 557.44 65.28 557.18 68.19 C554.88 93.62 554.88 93.62 553.65 105.04 C553.57 105.76 553.5 106.48 553.42 107.21 C552.9 111.89 552.9 111.89 551.77 114.13 C408.88 114.13 265.99 114.13 118.77 114.13 C119.34 124.19 119.34 124.19 120.77 134.13 C120.95 135.77 121.1 137.41 121.22 139.05 C121.3 140.01 121.37 140.96 121.45 141.94 C121.52 142.96 121.6 143.98 121.68 145.03 C121.85 147.23 122.02 149.42 122.19 151.62 C122.45 155.05 122.71 158.48 122.97 161.92 C123.84 173.37 124.73 184.77 126.36 196.15 C126.9 200.05 127.19 203.9 127.4 207.82 C127.44 208.52 127.48 209.22 127.51 209.94 C127.82 216.01 127.88 222.06 127.77 228.13 C130.96 229.2 133.23 229.27 136.58 229.28 C138.4 229.29 138.4 229.29 140.25 229.3 C141.6 229.3 142.94 229.31 144.29 229.31 C145.7 229.31 147.11 229.32 148.53 229.33 C151.58 229.34 154.62 229.36 157.67 229.36 C162.48 229.38 167.3 229.4 172.11 229.43 C185.81 229.5 199.5 229.56 213.19 229.61 C220.75 229.64 228.31 229.68 235.87 229.72 C240.66 229.75 245.45 229.76 250.24 229.77 C253.22 229.78 256.19 229.8 259.17 229.82 C260.55 229.83 261.93 229.83 263.32 229.83 C265.2 229.83 267.08 229.85 268.97 229.86 C270.02 229.87 271.08 229.87 272.16 229.88 C274.77 230.13 274.77 230.13 277.77 232.13 C277.11 232.13 276.45 232.13 275.77 232.13 C276.26 233.24 276.75 234.35 277.25 235.49 C279.12 240.5 279.17 245.08 279.1 250.37 C279.1 251.37 279.1 252.36 279.1 253.38 C279.09 256.64 279.06 259.9 279.03 263.16 C279.02 265.43 279.02 267.7 279.01 269.97 C279 275.93 278.96 281.89 278.92 287.85 C278.86 297.41 278.83 306.97 278.8 316.53 C278.78 319.88 278.76 323.22 278.74 326.56 C278.73 328.6 278.72 330.63 278.71 332.67 C278.7 333.61 278.69 334.54 278.68 335.5 C278.68 336.35 278.68 337.2 278.67 338.08 C278.67 339.19 278.67 339.19 278.66 340.32 C278.66 342.24 278.66 342.24 279.77 344.13 C247.45 344.2 215.13 344.26 182.8 344.29 C178.99 344.29 175.18 344.3 171.36 344.3 C170.23 344.3 170.23 344.3 169.06 344.3 C156.76 344.32 144.45 344.34 132.15 344.37 C119.53 344.39 106.91 344.41 94.3 344.42 C86.51 344.42 78.71 344.43 70.92 344.46 C64.96 344.48 58.99 344.48 53.03 344.47 C50.57 344.48 48.12 344.48 45.67 344.49 C42.33 344.51 38.99 344.5 35.66 344.5 C34.68 344.5 33.69 344.51 32.68 344.52 C31.79 344.52 30.9 344.51 29.99 344.5 C28.83 344.51 28.83 344.51 27.65 344.51 C27.03 344.38 26.41 344.26 25.77 344.13 C23.1 340.13 22.92 336.6 22.34 331.88 C22.21 330.91 22.09 329.93 21.96 328.92 C20.52 317.04 19.69 305.1 18.86 293.16 C18.37 286.15 17.84 279.19 16.84 272.23 C15.3 261.39 14.55 250.46 13.66 239.56 C13.12 232.95 12.57 226.34 12.01 219.74 C11.91 218.45 11.8 217.17 11.69 215.85 C10.78 205.01 9.75 194.19 8.66 183.37 C8.06 177.37 7.56 171.4 7.27 165.38 C6.94 158.68 6.24 152.05 5.46 145.38 C3.78 130.95 2.52 116.48 1.26 102 C0.28 90.68 -0.78 79.38 -1.91 68.07 C-2.83 58.93 -3.52 49.83 -3.88 40.65 C-4.12 34.96 -4.85 29.44 -5.75 23.81 C-6.35 19.15 -6.66 14.51 -6.91 9.82 C-6.96 8.98 -7.01 8.13 -7.06 7.27 C-7.16 5.22 -7.2 3.18 -7.23 1.13 C-5.33 -0.76 -2.53 0.01 0 0 Z " fill="#EAEAEA" transform="translate(361.2256462275982,439.865137308836)"/>
<path d="M0 0 C1.36 -0.01 1.36 -0.01 2.76 -0.03 C3.75 -0.03 4.74 -0.03 5.76 -0.04 C6.81 -0.05 7.86 -0.06 8.94 -0.06 C12.41 -0.09 15.88 -0.11 19.35 -0.12 C20.53 -0.12 21.72 -0.13 22.94 -0.14 C29.2 -0.16 35.46 -0.18 41.72 -0.2 C48.2 -0.21 54.68 -0.26 61.16 -0.31 C66.13 -0.34 71.1 -0.35 76.07 -0.36 C78.46 -0.37 80.85 -0.38 83.24 -0.41 C86.58 -0.44 89.91 -0.44 93.25 -0.43 C94.24 -0.45 95.23 -0.46 96.26 -0.48 C98.75 -0.46 101.01 -0.4 103.44 0.15 C106.71 3.79 106.92 7.29 107.25 12.08 C107.3 12.77 107.35 13.46 107.4 14.17 C107.51 15.66 107.62 17.16 107.72 18.66 C107.88 21.06 108.06 23.46 108.24 25.86 C108.5 29.37 108.76 32.88 109.01 36.39 C109.7 45.81 110.46 55.24 111.24 64.66 C111.5 67.82 111.75 70.98 111.99 74.14 C112.15 76.09 112.31 78.03 112.47 79.98 C112.54 80.88 112.61 81.78 112.68 82.71 C112.89 87.41 112.89 87.41 115.44 91.15 C117.21 91.66 119.01 92.07 120.82 92.45 C126.55 93.7 132.21 95.11 137.87 96.64 C139.12 96.98 139.12 96.98 140.4 97.32 C143.04 98.04 145.68 98.75 148.31 99.47 C152 100.46 155.68 101.45 159.36 102.45 C160.26 102.69 161.15 102.93 162.07 103.18 C168.53 104.92 175.01 106.61 181.5 108.28 C192.11 111.01 202.65 113.99 213.18 117 C220.9 119.19 228.64 121.27 236.44 123.15 C236.44 123.81 236.44 124.47 236.44 125.15 C238.75 125.15 241.06 125.15 243.44 125.15 C243.44 125.48 243.44 125.81 243.44 126.15 C241.46 126.15 239.48 126.15 237.44 126.15 C237.77 128.46 238.1 130.77 238.44 133.15 C239.1 133.15 239.76 133.15 240.44 133.15 C240.49 146.31 240.52 159.48 240.54 172.64 C240.55 178.75 240.57 184.86 240.59 190.97 C240.61 196.87 240.62 202.77 240.63 208.67 C240.63 210.92 240.64 213.17 240.65 215.42 C240.67 218.57 240.67 221.73 240.67 224.88 C240.67 225.81 240.68 226.73 240.69 227.69 C240.67 233.18 239.99 237.88 238.44 243.15 C233.7 242.56 229.25 241.65 224.67 240.33 C224.04 240.15 223.41 239.98 222.76 239.79 C221.42 239.41 220.07 239.02 218.72 238.63 C215.13 237.6 211.53 236.58 207.93 235.56 C207.21 235.35 206.48 235.14 205.74 234.93 C199.26 233.09 192.76 231.33 186.25 229.59 C165.11 223.93 144.04 218.06 123.03 211.93 C112.82 208.96 102.6 206.09 92.31 203.4 C77.93 199.64 63.66 195.53 49.38 191.4 C48.24 191.08 47.1 190.75 45.93 190.41 C39.63 188.59 33.33 186.76 27.04 184.91 C24.76 184.25 22.49 183.6 20.21 182.95 C19.07 182.62 17.93 182.29 16.76 181.95 C15.84 181.69 14.93 181.43 13.99 181.16 C10.63 179.83 8.18 178.54 5.44 176.15 C4.71 173.29 4.4 171.18 4.3 168.29 C4.25 167.51 4.2 166.73 4.15 165.93 C3.99 163.38 3.87 160.83 3.75 158.28 C3.59 155.61 3.42 152.94 3.26 150.27 C3.14 148.48 3.03 146.68 2.93 144.88 C2.46 137.03 1.72 129.23 0.88 121.4 C-0.11 112.06 -0.92 102.72 -1.56 93.34 C-2.16 84.68 -2.98 76.08 -4.06 67.47 C-6.82 45.39 -8 23.38 -8.56 1.15 C-5.64 0.32 -3.03 0.02 0 0 Z " fill="#EAEAEA" transform="translate(399.56092834472656,839.8460998535156)"/>
<path d="M0 0 C36.4 -0.05 72.8 -0.08 109.2 -0.1 C113.5 -0.1 117.79 -0.11 122.08 -0.11 C122.94 -0.11 123.79 -0.11 124.67 -0.11 C138.53 -0.12 152.39 -0.14 166.24 -0.15 C180.45 -0.17 194.66 -0.18 208.87 -0.19 C217.64 -0.19 226.42 -0.2 235.19 -0.22 C241.2 -0.23 247.21 -0.23 253.22 -0.23 C256.69 -0.23 260.16 -0.23 263.63 -0.24 C267.39 -0.25 271.15 -0.25 274.9 -0.24 C276.01 -0.25 277.12 -0.25 278.26 -0.26 C279.26 -0.25 280.26 -0.25 281.29 -0.25 C282.16 -0.25 283.02 -0.25 283.92 -0.25 C286 0 286 0 288 2 C288.09 4.08 288.09 4.08 287.86 6.71 C287.74 8.2 287.74 8.2 287.62 9.72 C287.52 10.81 287.42 11.9 287.31 13.03 C287.22 14.18 287.12 15.33 287.02 16.51 C286.69 20.34 286.35 24.17 286 28 C285.82 30 285.65 32 285.47 34 C284.74 42.45 283.97 50.89 283.2 59.33 C282.93 62.24 282.67 65.15 282.41 68.05 C280.11 93.48 280.11 93.48 278.88 104.91 C278.8 105.62 278.72 106.34 278.65 107.08 C278.12 111.76 278.12 111.76 277 114 C186.58 114 96.16 114 3 114 C1.47 110.95 2.52 108.35 3 105 C3.14 101.91 3.14 98.83 3.13 95.74 C3.13 94.83 3.13 93.93 3.13 93 C3.14 90.04 3.14 87.07 3.13 84.11 C3.13 82.03 3.13 79.96 3.14 77.88 C3.14 73.54 3.14 69.2 3.13 64.86 C3.12 59.32 3.13 53.77 3.13 48.23 C3.14 43.95 3.14 39.66 3.13 35.38 C3.13 33.34 3.13 31.29 3.14 29.25 C3.14 26.39 3.13 23.52 3.13 20.65 C3.13 19.82 3.13 18.99 3.14 18.13 C3.14 9.51 3.14 9.51 2 1 C1.34 0.67 0.68 0.34 0 0 Z " fill="#FCFCFC" transform="translate(636,440)"/>
<path d="M0 0 C64.02 0 128.04 0 194 0 C194.02 28.03 194.04 56.06 194.06 84.94 C194.07 93.8 194.08 102.67 194.09 111.8 C194.09 122.59 194.09 122.59 194.1 127.63 C194.1 131.17 194.1 134.71 194.11 138.25 C194.11 142.75 194.11 147.26 194.11 151.76 C194.11 153.42 194.12 155.08 194.12 156.74 C194.12 158.97 194.12 161.2 194.12 163.43 C194.12 165.3 194.12 165.3 194.12 167.22 C194 170 194 170 193 171 C191.36 171.13 189.71 171.2 188.07 171.24 C187.02 171.26 185.97 171.29 184.88 171.32 C183.17 171.35 183.17 171.35 181.41 171.39 C179.66 171.43 179.66 171.43 177.88 171.46 C175.4 171.52 172.92 171.57 170.45 171.61 C166.65 171.69 162.85 171.78 159.05 171.87 C156.65 171.92 154.25 171.97 151.85 172.01 C150.71 172.04 149.57 172.07 148.39 172.1 C147.34 172.12 146.28 172.13 145.19 172.15 C144.26 172.17 143.33 172.19 142.37 172.21 C140 172 140 172 137 170 C136.71 167.43 136.62 165.1 136.66 162.52 C136.66 161.75 136.66 160.98 136.66 160.19 C136.66 157.63 136.68 155.08 136.71 152.52 C136.71 150.76 136.72 148.99 136.72 147.22 C136.73 142.56 136.76 137.9 136.79 133.24 C136.82 128.49 136.84 123.74 136.85 118.98 C136.89 109.66 136.94 100.33 137 91 C135.68 90.67 134.36 90.34 133 90 C132.82 90.61 132.64 91.23 132.45 91.86 C132.2 92.67 131.95 93.48 131.69 94.31 C131.44 95.11 131.2 95.91 130.95 96.74 C129.94 99.14 128.85 100.22 127 102 C126.5 103.18 126.01 104.35 125.5 105.56 C124 109 124 109 121 111 C119.95 112.97 118.95 114.98 118 117 C115.97 120.62 113.76 123.89 111 127 C110.34 127 109.68 127 109 127 C108.73 128.09 108.46 129.19 108.19 130.31 C107.04 133.89 106.58 134.63 104 137 C103.53 138.01 103.05 139.02 102.56 140.06 C100.94 143.11 100.18 143.9 97 145 C92.2 142.23 90.21 140.05 88 135 C87.44 134.28 86.89 133.56 86.31 132.81 C85 131 85 131 85 128 C84.34 128 83.68 128 83 128 C79.85 124.64 77.91 121.03 75.95 116.93 C74.94 114.8 74.94 114.8 73.25 112.12 C72 110 72 110 72 108 C71.1 107.69 71.1 107.69 70.19 107.38 C67.19 105.49 66.45 103.17 65 100 C64.01 99.01 64.01 99.01 63 98 C62.4 96.48 61.86 94.93 61.38 93.38 C61.11 92.56 60.85 91.74 60.59 90.9 C60.39 90.27 60.2 89.65 60 89 C59.34 89 58.68 89 58 89 C57.99 90.01 57.98 91.03 57.97 92.07 C57.87 101.59 57.77 111.11 57.66 120.63 C57.61 125.53 57.55 130.42 57.5 135.32 C57.46 140.04 57.4 144.76 57.35 149.48 C57.33 151.28 57.31 153.09 57.29 154.89 C57.27 157.41 57.24 159.93 57.21 162.45 C57.2 163.2 57.19 163.96 57.19 164.74 C57.11 169.89 57.11 169.89 56 171 C54.36 171.13 52.71 171.2 51.07 171.24 C50.02 171.26 48.97 171.29 47.88 171.32 C46.74 171.34 45.59 171.36 44.41 171.39 C42.66 171.43 42.66 171.43 40.88 171.46 C38.4 171.52 35.92 171.57 33.45 171.61 C29.65 171.69 25.85 171.78 22.05 171.87 C19.65 171.92 17.25 171.97 14.85 172.01 C13.14 172.06 13.14 172.06 11.39 172.1 C10.34 172.12 9.28 172.13 8.19 172.15 C7.26 172.17 6.33 172.19 5.37 172.21 C3 172 3 172 0 170 C-0.37 167.1 -0.37 167.1 -0.36 163.31 C-0.36 162.61 -0.37 161.92 -0.37 161.2 C-0.37 158.86 -0.36 156.51 -0.34 154.17 C-0.34 152.47 -0.34 150.76 -0.34 149.06 C-0.34 144.49 -0.32 139.92 -0.3 135.35 C-0.29 131.06 -0.29 126.78 -0.28 122.5 C-0.27 109.96 -0.23 97.42 -0.19 84.88 C-0.13 56.87 -0.06 28.86 0 0 Z " fill="#000002" transform="translate(648,0)"/>
<path d="M0 0 C55.11 0 110.22 0 167 0 C167.04 42.59 167.04 42.59 167.05 60.38 C167.05 72.68 167.06 84.99 167.08 97.29 C167.09 106.25 167.09 115.21 167.09 124.17 C167.1 128.92 167.1 133.66 167.11 138.41 C167.11 142.87 167.11 147.34 167.11 151.8 C167.11 153.44 167.12 155.08 167.12 156.73 C167.12 158.96 167.12 161.19 167.12 163.43 C167.12 165.3 167.12 165.3 167.12 167.22 C167 170 167 170 166 171 C164.36 171.13 162.71 171.2 161.07 171.24 C160.02 171.26 158.97 171.29 157.88 171.32 C156.17 171.35 156.17 171.35 154.41 171.39 C152.66 171.43 152.66 171.43 150.88 171.46 C148.4 171.52 145.92 171.57 143.45 171.61 C139.65 171.69 135.85 171.78 132.05 171.87 C129.65 171.92 127.25 171.97 124.85 172.01 C123.71 172.04 122.57 172.07 121.39 172.1 C120.34 172.12 119.28 172.13 118.19 172.15 C117.26 172.17 116.33 172.19 115.37 172.21 C113 172 113 172 110 170 C109.61 167.72 109.61 167.72 109.6 164.85 C109.58 163.24 109.58 163.24 109.56 161.59 C109.56 159.84 109.56 159.84 109.56 158.06 C109.54 156.28 109.54 156.28 109.52 154.45 C109.48 150.64 109.46 146.82 109.44 143 C109.41 139.18 109.39 135.36 109.35 131.55 C109.32 129.17 109.31 126.79 109.3 124.41 C109.29 122.8 109.29 122.8 109.27 121.15 C109.26 119.73 109.26 119.73 109.26 118.28 C109.22 115.8 109.22 115.8 107 114 C104.82 113.71 104.82 113.71 102.27 113.77 C101.29 113.77 100.31 113.77 99.3 113.77 C98.24 113.78 97.18 113.79 96.09 113.8 C95 113.81 93.92 113.81 92.8 113.81 C89.32 113.82 85.85 113.85 82.38 113.88 C80.02 113.89 77.67 113.89 75.32 113.9 C69.55 113.92 63.77 113.96 58 114 C58 114.7 58 115.4 58.01 116.12 C58.03 122.7 58.04 129.27 58.05 135.85 C58.06 139.23 58.06 142.62 58.08 146 C58.09 149.88 58.09 153.77 58.1 157.65 C58.1 158.87 58.11 160.09 58.11 161.35 C58.11 162.47 58.11 163.59 58.11 164.75 C58.12 165.74 58.12 166.73 58.12 167.75 C58 170 58 170 57 171 C55.26 171.1 53.51 171.13 51.76 171.13 C50.64 171.13 49.53 171.14 48.37 171.14 C47.16 171.14 45.94 171.13 44.69 171.13 C43.45 171.13 42.21 171.13 40.93 171.14 C38.31 171.14 35.68 171.14 33.05 171.13 C29.68 171.12 26.31 171.13 22.93 171.13 C19.73 171.14 16.52 171.14 13.31 171.13 C12.1 171.13 10.88 171.14 9.63 171.14 C7.95 171.13 7.95 171.13 6.24 171.13 C5.25 171.13 4.26 171.13 3.24 171.13 C1 171 1 171 0 170 C-0.1 167.81 -0.12 165.62 -0.12 163.43 C-0.12 162.73 -0.12 162.04 -0.12 161.32 C-0.12 158.97 -0.12 156.63 -0.11 154.28 C-0.11 152.61 -0.11 150.93 -0.11 149.26 C-0.11 144.69 -0.11 140.13 -0.1 135.57 C-0.1 130.81 -0.09 126.05 -0.09 121.28 C-0.09 112.26 -0.08 103.24 -0.07 94.21 C-0.06 82.02 -0.05 69.83 -0.05 57.64 C-0.04 38.43 -0.02 19.21 0 0 Z " fill="#000002" transform="translate(271,0)"/>
<path d="M0 0 C1.17 -0 2.34 -0.01 3.54 -0.01 C4.83 -0.01 6.13 -0.01 7.46 -0.01 C8.82 -0.01 10.19 -0.02 11.56 -0.02 C15.28 -0.03 19 -0.03 22.72 -0.03 C25.82 -0.03 28.92 -0.04 32.02 -0.04 C39.34 -0.05 46.65 -0.05 53.97 -0.05 C61.53 -0.05 69.08 -0.06 76.64 -0.08 C83.12 -0.09 89.59 -0.1 96.07 -0.1 C99.95 -0.09 103.82 -0.1 107.69 -0.11 C111.33 -0.12 114.98 -0.12 118.62 -0.11 C120.6 -0.11 122.58 -0.12 124.56 -0.13 C125.73 -0.12 126.9 -0.12 128.11 -0.11 C129.13 -0.11 130.15 -0.11 131.2 -0.12 C133.62 0.13 133.62 0.13 135.62 2.13 C135.63 4.65 135.52 7.02 135.3 9.51 C135.26 10.18 135.21 10.85 135.16 11.55 C134.96 14.11 134.75 16.61 134.12 19.11 C133.24 22.65 133.07 26.3 132.75 29.92 C132.67 30.79 132.59 31.67 132.51 32.57 C132.25 35.45 132 38.32 131.74 41.2 C131.56 43.21 131.38 45.22 131.2 47.23 C130.21 58.34 129.24 69.46 128.29 80.58 C128.12 82.64 127.94 84.7 127.76 86.76 C127.64 88.17 127.52 89.57 127.4 90.98 C127.34 91.69 127.28 92.4 127.21 93.13 C126.85 97.37 126.49 101.61 126.15 105.85 C125.73 110.93 125.3 116 124.87 121.07 C124.7 123.06 124.54 125.05 124.38 127.03 C124.16 129.81 123.92 132.58 123.68 135.35 C123.62 136.18 123.55 137.01 123.49 137.87 C122.81 145.26 122.81 145.26 119.62 148.13 C117.55 148.98 117.55 148.98 115.19 149.48 C113.87 149.77 113.87 149.77 112.52 150.07 C111.15 150.35 111.15 150.35 109.74 150.63 C102.73 152.12 95.95 153.91 89.11 156.07 C83.37 157.82 77.57 159.31 71.76 160.82 C68.03 161.8 64.3 162.78 60.57 163.76 C59.82 163.96 59.06 164.16 58.28 164.36 C50.96 166.3 43.66 168.3 36.37 170.32 C35.19 170.64 34.02 170.97 32.8 171.3 C27.21 172.84 21.63 174.41 16.07 176.04 C15.05 176.33 14.03 176.62 12.98 176.92 C11.09 177.46 9.2 178.02 7.31 178.58 C6.48 178.82 5.65 179.05 4.8 179.3 C4.08 179.51 3.37 179.72 2.63 179.94 C0.62 180.13 0.62 180.13 -1.58 179.62 C-4.4 177.29 -4.02 174.68 -4.38 171.13 C-4.48 168.79 -4.53 166.45 -4.54 164.1 C-4.55 163.43 -4.55 162.76 -4.56 162.07 C-4.57 159.84 -4.58 157.61 -4.59 155.38 C-4.6 153.77 -4.61 152.16 -4.62 150.56 C-4.65 146.21 -4.67 141.86 -4.69 137.51 C-4.71 132.96 -4.74 128.41 -4.76 123.86 C-4.81 115.25 -4.86 106.64 -4.9 98.03 C-4.95 88.23 -5.01 78.42 -5.06 68.62 C-5.17 48.46 -5.28 28.3 -5.38 8.13 C-4.72 7.8 -4.06 7.47 -3.38 7.13 C-3.38 5.48 -3.38 3.83 -3.38 2.13 C-4.37 1.8 -5.36 1.47 -6.38 1.13 C-4.66 -0.59 -2.35 0 0 0 Z " fill="#EC6329" transform="translate(643.3837738037109,783.8662872314453)"/>
<path d="M0 0 C52.47 0 104.94 0 159 0 C160.84 3.67 161.25 4.64 161.19 8.43 C161.18 9.31 161.17 10.19 161.16 11.09 C161.14 12.05 161.12 13.01 161.1 14 C161.09 15.01 161.08 16.03 161.07 17.07 C161.04 19.28 161 21.48 160.97 23.69 C160.91 27.17 160.86 30.66 160.82 34.15 C160.71 42.82 160.57 51.48 160.44 60.15 C160.33 67.47 160.23 74.79 160.14 82.11 C160.09 85.54 160.04 88.98 159.98 92.41 C159.95 94.52 159.92 96.63 159.9 98.74 C159.88 99.7 159.86 100.65 159.84 101.63 C159.83 102.52 159.82 103.41 159.81 104.32 C159.8 105.08 159.79 105.85 159.78 106.63 C160.06 109.62 160.98 112.19 162 115 C142.49 115.18 122.99 115.34 103.48 115.49 C94.43 115.57 85.37 115.64 76.31 115.72 C68.42 115.8 60.53 115.86 52.64 115.92 C48.46 115.95 44.28 115.98 40.1 116.03 C36.16 116.07 32.23 116.1 28.3 116.12 C26.85 116.13 25.41 116.14 23.96 116.16 C21.99 116.18 20.02 116.19 18.06 116.2 C16.95 116.21 15.85 116.22 14.71 116.23 C12 116 12 116 9 114 C8.54 111.22 8.28 108.63 8.12 105.84 C8.06 105.01 8.01 104.19 7.95 103.34 C7.76 100.68 7.6 98.03 7.44 95.38 C7.21 91.92 6.98 88.47 6.75 85.02 C6.69 84.17 6.63 83.31 6.57 82.43 C6.12 75.93 5.35 69.52 4.49 63.06 C3.5 55.28 3.06 47.44 2.5 39.62 C2.26 36.33 2.03 33.03 1.78 29.73 C1.72 28.92 1.66 28.12 1.6 27.3 C1.1 20.7 0.39 14.14 -0.45 7.58 C-1.11 2.21 -1.11 2.21 0 0 Z " fill="#E04C26" transform="translate(480,554)"/>
<path d="M0 0 C51.81 0 103.62 0 157 0 C157.33 18.15 157.66 36.3 158 55 C155.94 57.06 151.57 56.23 148.72 56.28 C147.88 56.3 147.04 56.32 146.18 56.34 C143.47 56.4 140.77 56.45 138.06 56.5 C123 56.72 123 56.72 108 58 C106.86 63.43 106.88 68.67 106.92 74.18 C106.92 75.19 106.92 76.2 106.93 77.24 C106.93 79.43 106.94 81.62 106.96 83.8 C106.97 87.26 106.98 90.72 106.99 94.18 C107.02 104.01 107.05 113.84 107.1 123.67 C107.12 129.69 107.14 135.7 107.15 141.72 C107.16 144.02 107.17 146.31 107.18 148.61 C107.2 151.81 107.21 155.01 107.21 158.21 C107.22 159.16 107.23 160.11 107.24 161.09 C107.24 161.96 107.24 162.83 107.23 163.73 C107.24 164.87 107.24 164.87 107.24 166.02 C107 168 107 168 105 171 C102.72 171.37 102.72 171.37 99.83 171.36 C98.75 171.36 97.68 171.36 96.57 171.37 C94.81 171.35 94.81 171.35 93.03 171.33 C91.83 171.33 90.64 171.32 89.41 171.32 C86.88 171.32 84.36 171.3 81.83 171.28 C77.95 171.25 74.07 171.24 70.19 171.23 C67.74 171.23 65.29 171.21 62.84 171.2 C61.67 171.2 60.5 171.19 59.3 171.19 C58.22 171.18 57.15 171.17 56.04 171.16 C54.61 171.15 54.61 171.15 53.16 171.14 C51 171 51 171 50 170 C49.9 168.65 49.87 167.29 49.87 165.93 C49.87 165.06 49.87 164.18 49.86 163.28 C49.87 162.31 49.87 161.34 49.87 160.34 C49.87 159.33 49.87 158.31 49.87 157.27 C49.86 153.89 49.86 150.52 49.87 147.14 C49.87 144.81 49.87 142.47 49.86 140.13 C49.86 135.22 49.86 130.31 49.87 125.39 C49.88 119.1 49.87 112.81 49.87 106.51 C49.86 101.68 49.86 96.84 49.87 92.01 C49.87 89.69 49.87 87.37 49.86 85.05 C49.86 81.8 49.87 78.55 49.87 75.3 C49.87 74.35 49.87 73.39 49.86 72.4 C49.88 67.82 50.06 63.51 51 59 C50.34 59 49.68 59 49 59 C49 58.34 49 57.68 49 57 C33.16 56.67 17.32 56.34 1 56 C-7.35 39.3 -0.36 18.67 0 0 Z " fill="#010103" transform="translate(465,0)"/>
<path d="M0 0 C18.48 0 36.96 0 56 0 C56.06 8.15 56.12 16.29 56.18 24.68 C56.22 29.83 56.26 34.97 56.31 40.12 C56.37 48.29 56.44 56.47 56.5 64.65 C56.54 71.23 56.6 77.82 56.65 84.41 C56.67 86.93 56.69 89.45 56.71 91.97 C56.73 95.48 56.76 99 56.79 102.51 C56.8 104.09 56.8 104.09 56.81 105.7 C56.82 106.66 56.83 107.61 56.84 108.59 C56.85 109.42 56.85 110.25 56.86 111.11 C56.79 113.01 56.79 113.01 58 114 C65.2 115.32 72.45 115.1 79.75 115.04 C82.06 115.03 84.37 115.02 86.68 115.01 C93.25 114.98 99.82 114.95 106.38 114.9 C110.41 114.88 114.44 114.86 118.47 114.85 C120 114.84 121.54 114.83 123.07 114.82 C125.2 114.8 127.34 114.79 129.47 114.79 C131.3 114.78 131.3 114.78 133.16 114.77 C136 115 136 115 138 117 C138.24 119.29 138.24 119.29 138.23 122.18 C138.23 123.81 138.23 123.81 138.23 125.46 C138.22 126.63 138.21 127.8 138.2 129.01 C138.19 130.2 138.19 131.4 138.19 132.63 C138.18 136.46 138.15 140.29 138.12 144.12 C138.11 146.72 138.11 149.31 138.1 151.9 C138.08 158.27 138.04 164.63 138 171 C120.17 171.02 102.34 171.04 84.52 171.05 C76.24 171.06 67.96 171.06 59.68 171.08 C52.47 171.09 45.26 171.09 38.05 171.09 C34.22 171.1 30.4 171.1 26.58 171.11 C22.99 171.11 19.4 171.11 15.8 171.11 C13.85 171.11 11.9 171.12 9.94 171.12 C8.79 171.12 7.63 171.12 6.44 171.12 C5.43 171.12 4.42 171.12 3.39 171.12 C1 171 1 171 -1 170 C-0.67 113.9 -0.34 57.8 0 0 Z " fill="#000002" transform="translate(872,0)"/>
<path d="M0 0 C17.49 0 34.98 0 53 0 C53.02 7.28 53.04 14.56 53.05 21.83 C53.06 25.22 53.06 28.61 53.08 32 C53.09 35.88 53.09 39.77 53.1 43.65 C53.1 44.87 53.11 46.09 53.11 47.35 C53.11 48.47 53.11 49.59 53.11 50.75 C53.12 51.74 53.12 52.73 53.12 53.75 C53 56 53 56 52 57 C50.49 57.11 48.97 57.15 47.45 57.16 C46.48 57.17 45.52 57.18 44.52 57.19 C42.94 57.2 42.94 57.2 41.32 57.2 C40.25 57.21 39.17 57.21 38.06 57.22 C35.78 57.23 33.49 57.24 31.21 57.24 C27.71 57.25 24.22 57.28 20.72 57.31 C18.51 57.32 16.29 57.32 14.07 57.33 C12.5 57.35 12.5 57.35 10.9 57.37 C9.92 57.36 8.94 57.36 7.94 57.36 C7.08 57.36 6.22 57.36 5.33 57.37 C2.38 56.9 1.05 56.17 -1 54 C-1.44 51.59 -1.44 51.59 -1.36 48.7 C-1.34 47.62 -1.32 46.54 -1.3 45.43 C-1.26 44.26 -1.22 43.1 -1.17 41.89 C-1.14 40.7 -1.12 39.51 -1.09 38.28 C-0.99 34.45 -0.87 30.63 -0.75 26.81 C-0.68 24.22 -0.62 21.64 -0.55 19.05 C-0.39 12.7 -0.19 6.35 0 0 Z " fill="#FCFCFB" transform="translate(328,0)"/>
<path d="M0 0 C24.42 0 48.84 0 74 0 C74 0.66 74 1.32 74 2 C73.01 2.66 72.02 3.32 71 4 C69.92 5.68 69.92 5.68 69.06 7.62 C68.72 8.33 68.39 9.04 68.04 9.77 C67.7 10.5 67.35 11.24 67 12 C66.32 13.46 65.63 14.92 64.94 16.38 C64.64 17.02 64.34 17.67 64.03 18.34 C63 20 63 20 60 22 C59.11 23.89 59.11 23.89 58.5 26 C57.43 29.45 57.22 29.85 54 32 C52.97 33.98 51.97 35.98 51 38 C50.48 38.66 49.97 39.32 49.44 40 C47.81 42.04 47.81 42.04 47.06 45.06 C46 48 46 48 44.06 49.38 C40.91 51.86 40.17 55.25 39 59 C33.25 57.24 31.07 53.95 28.25 48.81 C27 46 27 46 27 44 C26.34 44 25.68 44 25 44 C22 38.25 22 38.25 22 36 C20.51 35.51 20.51 35.51 19 35 C18.33 33 17.67 31 17 29 C16.38 28.38 15.76 27.76 15.12 27.12 C12.69 24.69 11.6 22.37 10.14 19.29 C7.56 14.11 4.39 9.22 1.32 4.32 C0 2 0 2 0 0 Z " fill="#FCFBFB" transform="translate(709,0)"/>
<path d="M0 0 C0.33 0 0.66 0 1 0 C1.27 0.83 1.54 1.65 1.81 2.5 C2.42 4.3 3.04 6.1 3.77 7.86 C8.05 18.34 7.43 29.67 6.59 40.79 C5.33 57.15 5.33 57.15 10.01 72.57 C13.63 81.45 14.79 95.24 12.31 104.6 C11.75 107.03 11.75 107.03 13.14 108.98 C13.97 109.86 13.97 109.86 14.81 110.75 C15.36 111.34 15.9 111.94 16.46 112.55 C19.5 115.42 21.82 115.05 25.88 114.94 C27.45 114.89 27.45 114.89 29.05 114.84 C32.03 115 33.56 115.34 36 117 C36.99 118.48 36.99 118.48 38 120 C41.31 120.56 44.54 120.85 47.88 121.08 C53.02 121.56 55.67 123.08 60 126 C63.31 126.51 63.31 126.51 66.75 126.44 C72.77 126.68 76.47 127.9 81.63 130.87 C84.97 132.46 88.06 132.5 91.71 132.69 C94.63 133.09 96.6 134.49 99.03 136.09 C101.68 137.31 104.03 137.35 106.94 137.5 C112.55 137.78 117.84 138.84 122 143 C124 143.13 126 143.23 128 143.31 C133.29 143.67 136.89 144.62 141.54 147.03 C145.78 148.7 150.26 148.91 154.77 149.31 C158 150 158 150 160.39 151.96 C163.92 154.72 167.08 155 171.44 155.56 C176.96 156.31 180.97 157.46 186 160 C188.99 160.39 188.99 160.39 192 160.38 C197.64 160.69 197.64 160.69 200.94 163.5 C205.15 166.93 208.55 166.49 213.84 166.7 C216.85 166.99 218.34 167.42 220.88 168.94 C224.61 171.16 228.31 171.56 232.56 172 C240.48 172.87 240.48 172.87 243.62 175.06 C247.36 177.21 249.32 177.28 253.56 177.44 C259.66 177.71 259.66 177.71 262.94 180.5 C267.3 184.06 271.19 183.5 276.68 183.69 C279.78 183.98 281.1 184.26 283.56 186 C288.07 188.62 291.87 188.53 297.01 188.63 C300.28 189.04 301.68 189.69 304 192 C304 192.66 304 193.32 304 194 C305.27 194.06 305.27 194.06 306.56 194.11 C322.01 195.01 322.01 195.01 327 200 C329.35 200.15 331.71 200.22 334.06 200.25 C340.35 200.46 343.87 201.79 348.74 205.72 C352.5 207.85 356.22 207.19 360.4 206.72 C361.69 206.86 361.69 206.86 363 207 C364.85 209.5 364.85 209.5 366 212 C360.36 212.21 356.06 211.68 350.62 209.94 C349.12 209.47 347.62 209 346.11 208.54 C345.29 208.29 344.48 208.04 343.63 207.78 C338.74 206.33 333.81 205.05 328.88 203.75 C317.45 200.71 306.1 197.46 294.76 194.11 C288.12 192.16 281.48 190.33 274.76 188.69 C270.58 187.64 266.45 186.45 262.31 185.25 C260.48 184.72 258.66 184.2 256.83 183.67 C255.41 183.26 255.41 183.26 253.96 182.85 C234.84 177.37 215.67 172.07 196.44 167 C189.62 165.19 182.84 163.24 176.06 161.29 C169.27 159.34 162.45 157.53 155.61 155.76 C151.14 154.59 146.72 153.33 142.31 151.94 C137.74 150.5 133.15 149.26 128.5 148.12 C120.4 146.16 112.4 143.88 104.4 141.56 C103.54 141.31 102.68 141.06 101.79 140.81 C99.83 140.24 97.87 139.67 95.91 139.1 C85.14 135.98 74.3 133.17 63.45 130.35 C54.54 128.04 45.69 125.67 36.92 122.91 C34.07 122.02 31.22 121.2 28.35 120.4 C27.47 120.16 26.59 119.91 25.69 119.66 C23.91 119.17 22.13 118.68 20.36 118.2 C19.49 117.96 18.62 117.72 17.72 117.46 C16.96 117.25 16.19 117.04 15.4 116.83 C14.61 116.55 13.82 116.28 13 116 C11.95 115.73 10.89 115.45 9.8 115.17 C6.44 112.56 6.46 111.79 5.91 107.71 C5.72 105.41 5.56 103.11 5.43 100.81 C5.33 99.58 5.24 98.34 5.14 97.07 C4.89 93.74 4.66 90.4 4.45 87.07 C4.22 83.62 3.96 80.18 3.71 76.74 C3.35 71.97 3.01 67.19 2.67 62.42 C2.19 55.51 1.65 48.62 1.02 41.73 C0.95 40.92 0.88 40.11 0.8 39.28 C0.54 36.39 0.27 33.49 -0 30.59 C-2.2 7.18 -2.2 7.18 0 0 Z " fill="#DF3B0E" transform="translate(261,1062)"/>
<path d="M0 0 C0.66 0.66 1.32 1.32 2 2 C1.62 4.62 1.62 4.62 1 7 C-8.66 10.39 -18.24 13.44 -28.23 15.67 C-32.49 16.63 -36.56 17.77 -40.67 19.23 C-47.76 21.58 -55.11 23.26 -62.35 25.12 C-70.92 27.34 -79.44 29.68 -87.94 32.19 C-97.83 35.1 -107.75 37.92 -117.69 40.69 C-118.43 40.89 -119.16 41.1 -119.92 41.31 C-135.68 45.69 -151.49 49.89 -167.3 54.07 C-168.23 54.31 -169.17 54.56 -170.13 54.81 C-171.88 55.28 -173.63 55.74 -175.38 56.2 C-179.64 57.33 -183.82 58.59 -188 60 C-190.32 60.66 -192.64 61.29 -194.96 61.92 C-196.32 62.29 -197.68 62.65 -199.04 63.02 C-199.75 63.21 -200.45 63.4 -201.18 63.6 C-211.97 66.5 -222.73 69.46 -233.44 72.62 C-242.91 75.43 -252.44 78.04 -261.99 80.58 C-268.48 82.32 -274.95 84.11 -281.41 85.98 C-286.18 87.34 -290.96 88.64 -295.75 89.94 C-297.67 90.46 -299.59 90.98 -301.5 91.5 C-306.81 92.95 -306.81 92.95 -309.31 93.63 C-311.44 94.21 -313.56 94.79 -315.69 95.38 C-316.38 95.57 -317.08 95.76 -317.8 95.95 C-322.51 97.26 -327.19 98.66 -331.88 100.09 C-333.69 100.64 -333.69 100.64 -335.53 101.2 C-337.92 101.93 -340.31 102.66 -342.7 103.41 C-348.3 105.11 -353.13 106.5 -359 106 C-358.69 104.12 -358.69 104.12 -358 102 C-354.78 99.85 -353.39 99.65 -349.62 99.38 C-348.22 99.26 -348.22 99.26 -346.79 99.15 C-344 99 -344 99 -341.34 99.16 C-338.96 99.23 -338.96 99.23 -337.44 97.69 C-336.96 97.13 -336.49 96.57 -336 96 C-333.48 93.62 -332.35 93.03 -328.84 92.74 C-326.58 92.83 -324.33 92.97 -322.09 93.18 C-318.19 92.95 -316.81 91.61 -314 89 C-311.16 87.58 -308.4 87.54 -305.25 87.19 C-299.54 86.42 -296.47 85.46 -292 82 C-288.73 81.17 -286.18 80.99 -282.81 81.25 C-278.92 80.99 -277.17 80.23 -273.75 78.5 C-269.61 76.45 -266.85 75.77 -262.25 76.06 C-258.48 76.36 -258.48 76.36 -255.25 74.72 C-254.73 74.17 -254.22 73.63 -253.69 73.06 C-249.57 68.78 -244.88 69.43 -239.23 69.27 C-235.2 68.93 -233.2 67.38 -230 65 C-227.02 64.37 -224.04 64.19 -221 64 C-216.41 63.58 -216.41 63.58 -212.73 60.99 C-209.42 58.58 -207.55 58.51 -203.5 58.44 C-198.68 58.34 -195.97 57.78 -192 55 C-188.41 52.61 -186.57 52.74 -182.31 52.62 C-176.97 52.33 -173.64 51.64 -169.13 48.9 C-166.19 47.66 -163.5 47.68 -160.31 47.56 C-155.3 47.51 -155.3 47.51 -151.5 44.5 C-147.82 40.82 -144.26 41.5 -139.22 41.31 C-135.41 40.94 -133.02 39.81 -129.76 37.92 C-126.39 36.16 -122.69 36.11 -118.96 35.87 C-114.04 35.44 -111.62 34.31 -108 31 C-104.91 29.97 -102.49 29.83 -99.25 29.69 C-94.63 29.35 -91.98 28.64 -88.11 25.98 C-83.94 24.05 -79.06 24 -74.52 23.59 C-70.92 22.99 -69.02 21.96 -66 20 C-62.13 19.32 -58.9 18.92 -55 19.25 C-51.76 18.98 -50.99 18.45 -48.44 16.62 C-43.87 13.49 -39.43 13.18 -34.03 12.53 C-31.21 12.04 -29.79 11.54 -27.5 9.94 C-24.28 7.74 -21.61 7.78 -17.75 7.69 C-10.38 7.38 -5.75 4.41 0 0 Z " fill="#DF3B0E" transform="translate(1009,1169)"/>
<path d="M0 0 C31.92 -0.11 63.85 -0.2 95.77 -0.26 C99.54 -0.26 103.31 -0.27 107.07 -0.27 C108.2 -0.28 108.2 -0.28 109.35 -0.28 C121.5 -0.3 133.65 -0.34 145.8 -0.39 C158.26 -0.43 170.73 -0.46 183.19 -0.47 C190.88 -0.48 198.58 -0.5 206.27 -0.54 C212.17 -0.57 218.06 -0.57 223.95 -0.57 C226.38 -0.57 228.8 -0.58 231.22 -0.6 C234.52 -0.62 237.81 -0.61 241.11 -0.6 C242.56 -0.62 242.56 -0.62 244.04 -0.65 C246.47 -0.62 248.64 -0.56 251 0 C253.18 2.35 253.18 2.35 254 5 C253.67 5.99 253.34 6.98 253 8 C252.01 7.67 251.02 7.34 250 7 C248.59 6.91 247.17 6.87 245.75 6.87 C244.88 6.86 244.01 6.86 243.11 6.85 C242.15 6.85 241.19 6.85 240.21 6.86 C239.19 6.85 238.17 6.85 237.12 6.84 C233.7 6.83 230.27 6.83 226.85 6.83 C224.4 6.82 221.95 6.81 219.5 6.81 C214.22 6.79 208.94 6.78 203.66 6.77 C196.02 6.76 188.38 6.74 180.75 6.71 C168.35 6.67 155.95 6.64 143.55 6.61 C142.44 6.6 142.44 6.6 141.31 6.6 C130.77 6.57 120.23 6.55 109.69 6.53 C108.95 6.53 108.21 6.52 107.45 6.52 C106.7 6.52 105.96 6.52 105.2 6.52 C92.85 6.49 80.5 6.46 68.15 6.42 C60.53 6.39 52.91 6.37 45.28 6.36 C39.45 6.36 33.61 6.34 27.78 6.31 C25.38 6.31 22.98 6.3 20.58 6.3 C17.32 6.3 14.06 6.29 10.79 6.27 C9.84 6.27 8.88 6.28 7.89 6.28 C7.02 6.27 6.15 6.27 5.25 6.26 C4.5 6.26 3.74 6.26 2.97 6.25 C1 6 1 6 -2 4 C-1.34 2.68 -0.68 1.36 0 0 Z " fill="#E03709" transform="translate(387,784)"/>
<path d="M0 0 C5.29 0.74 10.3 2.12 15.42 3.59 C16.79 3.98 16.79 3.98 18.2 4.38 C21.2 5.23 24.19 6.08 27.19 6.94 C29.27 7.53 31.35 8.12 33.44 8.71 C42.93 11.41 52.42 14.12 61.91 16.84 C64.14 17.48 66.37 18.12 68.6 18.76 C70.04 19.17 71.47 19.58 72.91 20 C83.03 22.9 93.17 25.68 103.34 28.38 C111.91 30.67 120.43 33.13 128.94 35.62 C137.86 38.24 146.79 40.8 155.8 43.12 C167.91 46.25 179.95 49.65 192 53 C193.22 53.34 194.45 53.68 195.71 54.03 C199.2 55 202.7 55.97 206.19 56.94 C207.78 57.38 207.78 57.38 209.41 57.83 C210.87 58.24 210.87 58.24 212.36 58.65 C213.21 58.89 214.06 59.13 214.94 59.37 C217 60 217 60 219 61 C219 61.66 219 62.32 219 63 C219.66 63 220.32 63 221 63 C221 63.66 221 64.32 221 65 C214.31 65.51 209.62 64.7 203.52 61.94 C200.12 60.67 196.93 60.52 193.32 60.47 C191 60 191 60 188.62 58.03 C185.42 55.55 183.38 55.36 179.38 55 C173.71 54.34 169.06 53.05 163.79 50.94 C160.63 49.87 157.62 49.43 154.31 49 C149.54 48.37 146.23 47.33 142.11 44.94 C138.49 43.33 134.64 43.04 130.73 42.59 C128 42 128 42 126.05 40.5 C123.23 38.43 120.84 38.4 117.38 38.06 C111.9 37.39 107.58 36.2 102.59 33.94 C98.41 32.42 94.09 32.1 89.69 31.69 C88.8 31.46 87.91 31.23 87 31 C86.67 30.33 86.34 29.66 86 28.97 C85.67 28.32 85.34 27.67 85 27 C82.26 26.44 82.26 26.44 79.06 26.5 C73.37 26.24 69.14 25.12 63.91 22.98 C59.36 21.45 54.73 21.06 49.97 20.59 C47 20 47 20 45.57 18.53 C43.68 16.69 42.47 16.4 39.91 15.9 C39.13 15.74 38.34 15.58 37.53 15.41 C36.72 15.26 35.9 15.1 35.06 14.94 C33.45 14.62 31.83 14.29 30.22 13.96 C29.51 13.83 28.79 13.69 28.06 13.55 C26 13 26 13 23.94 11.95 C21.06 10.54 18.37 10.83 15.19 10.81 C10.2 10.54 7.28 10.2 3.69 6.62 C1.76 4.34 0.96 2.89 0 0 Z " fill="#DF390C" transform="translate(414,1021)"/>
<path d="M0 0 C3.55 2.49 4.38 4.86 5.11 8.95 C6.09 14.8 6.3 20.52 6.31 26.43 C6.33 28.57 6.36 30.7 6.38 32.83 C6.41 36.15 6.44 39.47 6.46 42.79 C6.48 46.03 6.52 49.26 6.56 52.5 C6.56 53.49 6.56 54.49 6.56 55.51 C6.57 56.44 6.59 57.36 6.6 58.31 C6.6 59.12 6.61 59.94 6.61 60.77 C7.09 63.52 8.23 64.88 10 67 C13.54 76.14 12.18 87.27 12.06 96.88 C10.85 116.89 10.85 116.89 16.06 135.67 C18.43 141.54 18.16 148.25 18.12 154.5 C18.12 155.29 18.12 156.09 18.12 156.91 C18.05 167.61 17.52 178.31 17 189 C16.67 189 16.34 189 16 189 C15.95 188.4 15.9 187.79 15.85 187.17 C15.78 186.37 15.7 185.57 15.62 184.75 C15.56 183.96 15.49 183.17 15.41 182.36 C15.12 180.01 15.12 180.01 14.03 178.1 C10.32 170.53 10.9 159.87 10.62 151.56 C10.26 140.99 9.22 130.52 8.12 120 C6.66 105.95 5.38 91.9 4.33 77.81 C3.62 68.43 2.84 59.06 1.93 49.7 C1.83 48.76 1.74 47.81 1.65 46.83 C1.2 42.24 0.74 37.65 0.27 33.06 C-1.96 10.81 -1.96 10.81 0 0 Z " fill="#DF3D11" transform="translate(193,299)"/>
<path d="M0 0 C5.39 6.16 6.45 13.01 6.26 20.86 C6.25 21.68 6.24 22.5 6.24 23.35 C6.21 25.96 6.17 28.58 6.12 31.19 C4.9 51.22 4.9 51.22 10 70 C12.42 78.79 12.21 87.72 12.06 96.75 C11.95 104.93 11.89 113.09 12.31 121.27 C12.37 122.46 12.43 123.66 12.49 124.9 C13.03 128.2 13.85 129.52 16 132 C20.08 145.56 18.86 162.14 17 176 C16.94 178 16.91 180 16.94 182 C16.95 182.95 16.96 183.9 16.96 184.88 C16.98 185.58 16.99 186.28 17 187 C16.01 186.67 15.02 186.34 14 186 C13.54 181.04 13.08 176.08 12.62 171.12 C12.56 170.38 12.49 169.63 12.42 168.86 C11.53 159.14 10.71 149.42 10 139.69 C9.38 131.19 8.57 122.72 7.62 114.25 C5.67 96.73 4.22 79.16 2.73 61.6 C2.2 55.26 1.64 48.92 1.08 42.58 C0.87 40.2 0.66 37.82 0.45 35.43 C0.32 33.96 0.19 32.48 0.05 31.01 C-0.9 20.46 -1.34 10.52 0 0 Z " fill="#DF3A0D" transform="translate(210,490)"/>
<path d="M0 0 C-0.3 13.87 -1.37 27.59 -2.81 41.38 C-4.39 56.55 -5.78 71.73 -7 86.94 C-7.08 87.95 -7.16 88.96 -7.25 89.99 C-7.84 97.33 -8.42 104.66 -9 112 C-9.64 120.03 -10.28 128.05 -10.92 136.08 C-11.18 139.32 -11.44 142.56 -11.69 145.8 C-11.85 147.77 -12.01 149.74 -12.17 151.71 C-12.24 152.61 -12.31 153.51 -12.38 154.44 C-12.45 155.26 -12.51 156.09 -12.58 156.94 C-12.67 158.01 -12.67 158.01 -12.75 159.11 C-13 161 -13 161 -14 164 C-15.94 163.69 -15.94 163.69 -18 163 C-21.16 153.52 -19.59 140.14 -16 131 C-15.49 130.39 -14.98 129.78 -14.46 129.15 C-12.7 126.56 -12.65 125.23 -12.71 122.13 C-12.72 121.17 -12.73 120.2 -12.74 119.21 C-12.76 118.17 -12.79 117.13 -12.81 116.06 C-12.82 114.98 -12.84 113.9 -12.85 112.79 C-12.9 108.18 -12.98 103.58 -13.06 98.97 C-13.12 95.61 -13.15 92.24 -13.19 88.87 C-13.21 87.85 -13.24 86.82 -13.26 85.77 C-13.34 77.85 -12.03 70.76 -8.91 63.45 C-7.99 60.98 -7.77 59.29 -7.8 56.68 C-7.81 55.85 -7.82 55.03 -7.82 54.19 C-7.84 53.31 -7.86 52.43 -7.88 51.53 C-7.88 50.61 -7.89 49.69 -7.9 48.74 C-7.93 44.83 -7.99 40.92 -8.04 37 C-8.4 8.5 -8.4 8.5 -3.44 2.25 C-1 0 -1 0 0 0 Z " fill="#DF3E12" transform="translate(1025,1003)"/>
<path d="M0 0 C0.33 0 0.66 0 1 0 C1.04 0.74 1.07 1.47 1.11 2.23 C1.18 3.21 1.24 4.18 1.31 5.19 C1.37 6.15 1.43 7.11 1.49 8.11 C2.06 11.36 3.29 13.21 5 16 C7.13 23.14 8.07 30.13 8.19 37.56 C8.36 42.16 8.36 42.16 10.62 45.95 C15.33 49.05 20.07 50.1 25.68 49.91 C33.56 49.66 33.56 49.66 36.5 51.94 C37 52.62 37.49 53.3 38 54 C41.08 55.03 43.46 55.17 46.69 55.31 C50.64 55.6 53.52 55.98 56.94 58 C60.5 60.09 63.45 60.31 67.56 60.5 C73.45 60.77 77.69 61.69 82 66 C85.2 66.21 88.4 66.32 91.61 66.43 C95 67 95 67 97.82 69.02 C102.75 72.09 107.6 71.48 113.28 71.4 C115.61 71.43 117.72 71.49 120 72 C122.11 74.44 123 75.77 123 79 C114.1 78.57 106.06 76.2 97.55 73.73 C93.13 72.46 88.69 71.27 84.25 70.06 C82.36 69.55 80.48 69.04 78.59 68.52 C77.66 68.27 76.72 68.01 75.76 67.75 C73.14 67.04 70.52 66.32 67.91 65.6 C57.18 62.66 46.44 59.77 35.69 56.91 C34.21 56.52 32.73 56.12 31.25 55.73 C29.15 55.17 27.04 54.61 24.93 54.05 C24.26 53.87 23.59 53.69 22.9 53.51 C17.49 52.09 12.04 50.89 6.56 49.8 C3.77 48.93 2.63 48.41 1 46 C0.48 43.45 0.48 43.45 0.27 40.41 C0.15 38.74 0.15 38.74 0.03 37.03 C-0.04 35.87 -0.12 34.7 -0.19 33.5 C-0.27 32.37 -0.35 31.23 -0.44 30.06 C-1.13 19.93 -1.32 10.08 0 0 Z " fill="#DF3A0D" transform="translate(511,883)"/>
<path d="M0 0 C2.41 1.52 3.79 2.44 4.82 5.14 C5.82 11.01 6.26 16.62 6.16 22.56 C6.15 23.86 6.15 23.86 6.14 25.19 C6.13 27.94 6.1 30.69 6.06 33.44 C4.93 52.83 4.93 52.83 10 71 C11.84 77.09 12.3 83.01 12.27 89.34 C12.27 90.19 12.27 91.04 12.27 91.91 C12.27 93.68 12.27 95.46 12.26 97.23 C12.25 99.95 12.26 102.68 12.27 105.4 C12.27 107.13 12.27 108.86 12.27 110.59 C12.27 111.4 12.27 112.22 12.28 113.06 C12.23 118.77 12.23 118.77 10 121 C10 119.68 10 118.36 10 117 C9.34 117 8.68 117 8 117 C6.24 103.48 4.76 89.99 3.84 76.38 C3.33 69 2.7 61.63 1.99 54.26 C1.9 53.31 1.81 52.37 1.71 51.39 C1.26 46.67 0.8 41.95 0.32 37.24 C-0.91 24.76 -1.97 12.46 0 0 Z " fill="#DF390C" transform="translate(250,937)"/>
<path d="M0 0 C0.33 0.66 0.66 1.32 1 2 C1.66 2 2.32 2 3 2 C6.37 7.83 6.13 14.13 6.06 20.66 C6.06 21.49 6.05 22.31 6.05 23.16 C6.03 26.67 6.01 30.18 5.98 33.69 C4.74 52.14 4.74 52.14 10 69 C15.48 83.79 11.92 103.6 11 119 C7.78 114.94 6.89 111.78 6.48 106.66 C6.38 105.56 6.29 104.46 6.2 103.33 C6.11 102.13 6.01 100.94 5.91 99.71 C5.81 98.46 5.71 97.22 5.61 95.94 C5.39 93.28 5.17 90.62 4.96 87.95 C4.41 81.08 3.84 74.21 3.28 67.33 C3.22 66.66 3.17 65.98 3.11 65.29 C2.45 57.3 1.78 49.31 1 41.32 C0.9 40.21 0.9 40.21 0.79 39.07 C0.47 35.84 0.15 32.61 -0.19 29.39 C-1.17 19.51 -1.51 9.84 0 0 Z " fill="#DF390C" transform="translate(233,747)"/>
<path d="M0 0 C2.15 -0 4.3 -0.01 6.46 -0.01 C10.54 -0.02 14.63 -0.01 18.72 -0.01 C19.94 -0.01 21.16 -0.01 22.42 -0.02 C28.47 -0 34.37 0.21 40.38 1.01 C42.37 1.29 42.37 1.29 44.29 0.12 C46.96 -0.01 49.61 0.08 52.29 0.12 C51.96 2.43 51.63 4.74 51.29 7.12 C50.55 6.96 49.81 6.8 49.05 6.64 C43.74 5.91 38.48 5.94 33.13 5.92 C31.91 5.91 30.69 5.9 29.43 5.89 C26.1 5.86 22.77 5.84 19.44 5.82 C15.95 5.8 12.46 5.77 8.97 5.74 C2.38 5.69 -4.22 5.65 -10.82 5.61 C-18.33 5.56 -25.85 5.5 -33.36 5.45 C-48.81 5.33 -64.26 5.22 -79.71 5.12 C-78.71 3.12 -78.71 3.12 -75.6 2.02 C-71.79 1.14 -68.43 0.81 -64.53 0.71 C-63.83 0.69 -63.12 0.67 -62.4 0.65 C-60.02 0.59 -57.65 0.54 -55.28 0.5 C-54.45 0.48 -53.62 0.46 -52.76 0.44 C-35.18 0.06 -17.59 0.02 0 0 Z " fill="#E03709" transform="translate(726.714282989502,785.8775100708008)"/>
<path d="M0 0 C0.33 0 0.66 0 1 0 C1.11 9.8 1.02 19.58 0.62 29.38 C0.59 30.25 0.56 31.13 0.53 32.03 C0.33 36.51 -0.1 40.82 -0.91 45.23 C-2.65 55.04 -3.24 65.02 -4.06 74.94 C-4.24 76.99 -4.41 79.04 -4.59 81.09 C-5.37 90.22 -6.13 99.35 -6.75 108.5 C-7.12 112.14 -7.97 115.49 -9 119 C-11.46 115.3 -11.32 112.43 -11.34 108.15 C-11.35 106.99 -11.35 106.99 -11.36 105.8 C-11.37 104.17 -11.37 102.53 -11.37 100.89 C-11.37 98.4 -11.41 95.92 -11.45 93.44 C-11.55 79.34 -11.55 79.34 -7.93 72.75 C-6.53 70.12 -6.39 67.63 -6.25 64.69 C-6.2 63.59 -6.14 62.49 -6.09 61.35 C-6.06 60.25 -6.03 59.14 -6 58 C-5.97 56.91 -5.94 55.83 -5.91 54.71 C-5.86 50.74 -5.84 46.96 -6.5 43.03 C-8.15 33.1 -8.37 19.41 -2.94 10.69 C-2.3 9.8 -1.66 8.91 -1 8 C-0.39 5.3 -0.19 2.77 0 0 Z " fill="#DF3A0E" transform="translate(1075,421)"/>
<path d="M0 0 C0.33 0 0.66 0 1 0 C1.2 9.72 1.1 19.32 0.18 29 C-0 31.03 -0.19 33.05 -0.37 35.08 C-0.47 36.18 -0.57 37.28 -0.68 38.41 C-1.16 43.74 -1.61 49.06 -2.06 54.39 C-2.5 59.6 -2.96 64.81 -3.41 70.02 C-3.74 73.86 -4.07 77.69 -4.4 81.53 C-4.72 85.32 -5.04 89.11 -5.38 92.89 C-5.5 94.31 -5.62 95.74 -5.74 97.16 C-6.36 104.6 -7.15 111.76 -9 119 C-9.33 119 -9.66 119 -10 119 C-10.91 109.95 -11.21 100.97 -11.25 91.88 C-11.27 90.58 -11.29 89.29 -11.31 87.96 C-11.34 80.61 -11.08 73.79 -8 67 C-7.01 66.01 -7.01 66.01 -6 65 C-5.84 62.14 -5.79 59.37 -5.84 56.51 C-5.85 55.66 -5.85 54.8 -5.86 53.92 C-5.87 51.18 -5.9 48.43 -5.94 45.69 C-6.29 11.61 -6.29 11.61 0 0 Z " fill="#DF3C10" transform="translate(1035,871)"/>
<path d="M0 0 C1.54 0 1.54 0 3.1 0 C4.86 0 4.86 0 6.65 -0 C8.6 0 8.6 0 10.58 0.01 C11.95 0.01 13.32 0.01 14.69 0.01 C18.42 0.01 22.15 0.01 25.88 0.02 C29.77 0.03 33.66 0.03 37.55 0.03 C44.93 0.03 52.31 0.04 59.69 0.05 C68.08 0.06 76.48 0.07 84.88 0.07 C102.15 0.08 119.43 0.1 136.71 0.12 C137.04 0.78 137.37 1.44 137.71 2.12 C136.09 2.5 134.46 2.85 132.83 3.19 C131.93 3.38 131.02 3.58 130.09 3.78 C127.22 4.07 125.13 4 122.32 3.65 C116.06 2.99 109.86 2.98 103.57 2.99 C101.69 2.99 101.69 2.99 99.77 2.99 C96.4 2.98 93.03 2.99 89.66 2.99 C87.57 3 85.49 3 83.4 3 C66.02 3.02 48.64 3.12 31.27 3.5 C30.45 3.51 29.63 3.53 28.79 3.54 C26.51 3.59 24.24 3.65 21.96 3.71 C20.72 3.74 19.47 3.77 18.19 3.8 C14.46 4.15 11.23 4.88 7.71 6.12 C7.38 6.78 7.05 7.44 6.71 8.12 C4.33 8.31 4.33 8.31 1.71 8.12 C-0.29 5.12 -0.29 5.12 -0.29 2.12 C-1.28 1.79 -2.27 1.46 -3.29 1.12 C-2.29 0.12 -2.29 0.12 0 0 Z " fill="#E55425" transform="translate(640.2938623428345,783.8769521713257)"/>
<path d="M0 0 C0.66 0 1.32 0 2 0 C2.33 0.66 2.66 1.32 3 2 C3.99 2.66 4.98 3.32 6 4 C5.01 4 4.02 4 3 4 C3 38.32 3 72.64 3 108 C2.01 108 1.02 108 0 108 C0 72.36 0 36.72 0 0 Z " fill="#E9D9D5" transform="translate(571,63)"/>
<path d="M0 0 C0.66 0 1.32 0 2 0 C2.03 0.76 2.05 1.52 2.08 2.31 C2.41 8.44 3.07 13.27 6.06 18.67 C8.43 24.54 8.16 31.25 8.12 37.5 C8.12 38.29 8.12 39.09 8.12 39.91 C8.05 50.61 7.52 61.31 7 72 C6.67 72 6.34 72 6 72 C5.95 71.4 5.9 70.79 5.85 70.17 C5.78 69.37 5.7 68.57 5.62 67.75 C5.52 66.57 5.52 66.57 5.41 65.36 C5.14 63.02 5.14 63.02 4.04 61.27 C-0.36 51.67 0.61 38.24 0.38 27.81 C0.34 26.44 0.3 25.07 0.26 23.7 C0.04 15.8 -0.05 7.9 0 0 Z " fill="#DF3A0D" transform="translate(203,416)"/>
<path d="M0 0 C0.33 0 0.66 0 1 0 C1.1 1.05 1.21 2.1 1.31 3.19 C1.72 6.9 1.72 6.9 3.46 9.2 C5.49 12.9 5.88 16.44 6.25 20.56 C6.33 21.43 6.42 22.3 6.5 23.2 C7.68 38.4 6.63 53.79 6 69 C5.67 69 5.34 69 5 69 C4.8 67.05 4.61 65.09 4.41 63.14 C4.12 61 4.12 61 3.03 59.31 C1.63 56.17 1.46 53.27 1.15 49.85 C1.08 49.15 1.02 48.46 0.96 47.74 C0.82 46.26 0.69 44.79 0.57 43.31 C0.38 41.1 0.17 38.89 -0.03 36.68 C-1.14 24.36 -1.38 12.31 0 0 Z " fill="#DF3A0D" transform="translate(244,867)"/>
<path d="M0 0 C2.31 1.48 3.76 2.42 4.82 5 C6.12 12.27 6.27 19.38 6.19 26.75 C6.18 28.61 6.18 28.61 6.17 30.51 C6.11 37.78 5.87 44.97 5.22 52.2 C4.88 56.47 4.91 60.72 5 65 C4.34 65 3.68 65 3 65 C2.42 59.15 1.85 53.3 1.29 47.45 C1.1 45.47 0.91 43.49 0.71 41.5 C-2.09 13.23 -2.09 13.23 0 0 Z " fill="#DF3C10" transform="translate(250,937)"/>
<path d="M0 0 C0.99 0 1.98 0 3 0 C3.29 5.21 3.57 10.42 3.85 15.63 C3.95 17.4 4.05 19.17 4.15 20.93 C4.42 25.92 4.68 30.9 4.9 35.88 C4.99 37.71 5.08 39.54 5.17 41.37 C5.2 42.29 5.22 43.22 5.25 44.17 C5.28 44.91 5.3 45.65 5.33 46.41 C4.82 50.4 3.27 54.19 2 58 C-11.53 58 -25.06 58 -39 58 C-39 57.34 -39 56.68 -39 56 C-26.13 55.67 -13.26 55.34 0 55 C0 36.85 0 18.7 0 0 Z " fill="#EBDBD7" transform="translate(622,0)"/>
<path d="M0 0 C0.33 0.66 0.66 1.32 1 2 C1.66 2 2.32 2 3 2 C6.04 7.27 6.13 12.8 6.13 18.76 C6.13 20.05 6.14 21.33 6.14 22.65 C6.13 23.32 6.13 23.98 6.13 24.67 C6.13 26.66 6.13 28.66 6.14 30.66 C6.13 37.4 5.92 44.02 5.22 50.73 C4.96 53.39 4.9 56.01 4.94 58.69 C4.95 59.93 4.95 59.93 4.96 61.2 C4.98 61.79 4.99 62.39 5 63 C4.34 63 3.68 63 3 63 C2.59 59.13 2.18 55.25 1.77 51.38 C1.57 49.43 1.36 47.49 1.15 45.54 C-2.15 13.96 -2.15 13.96 0 0 Z " fill="#DF3B0F" transform="translate(233,747)"/>
<path d="M0 0 C3.56 2.5 4.39 4.88 5.12 8.99 C6.06 14.67 6.26 20.17 6.2 25.92 C6.19 26.9 6.19 27.88 6.19 28.9 C6.18 31.99 6.15 35.09 6.12 38.19 C6.11 40.31 6.11 42.42 6.1 44.54 C6.08 49.69 6.04 54.85 6 60 C5.69 59.38 5.38 58.75 5.07 58.11 C4.4 56.79 3.69 55.48 2.93 54.2 C1.62 51.1 1.45 48.16 1.15 44.81 C1.08 44.11 1.02 43.42 0.96 42.7 C0.82 41.22 0.69 39.74 0.57 38.26 C0.38 36.03 0.17 33.81 -0.03 31.59 C-0.98 21.06 -1.9 10.47 0 0 Z " fill="#DF3A0D" transform="translate(193,299)"/>
<path d="M0 0 C-0.68 20.26 -2.13 40.08 -6 60 C-6.33 60 -6.66 60 -7 60 C-7.15 56.11 -7.29 52.22 -7.43 48.32 C-7.5 46.37 -7.57 44.41 -7.64 42.45 C-8.84 8.92 -8.84 8.92 -3.44 2.25 C-1 0 -1 0 0 0 Z " fill="#DF390C" transform="translate(1025,1003)"/>
<path d="M0 0 C0.33 0 0.66 0 1 0 C1.27 0.83 1.54 1.65 1.81 2.5 C2.42 4.3 3.04 6.1 3.77 7.86 C8.39 19.18 7.51 31.68 6.19 43.62 C6.12 44.32 6.05 45.02 5.98 45.74 C5.73 47.73 5.73 47.73 5 51 C4.01 51.66 3.02 52.32 2 53 C1.56 48.27 1.14 43.54 0.72 38.82 C0.57 37.21 0.43 35.61 0.28 34.01 C-2.19 7.22 -2.19 7.22 0 0 Z " fill="#DF390D" transform="translate(261,1062)"/>
<path d="M0 0 C0.23 10.3 -0.5 20.39 -1.44 30.62 C-1.57 32.16 -1.71 33.69 -1.85 35.23 C-2.22 39.49 -2.61 43.74 -3 48 C-3.2 50.2 -3.4 52.39 -3.6 54.59 C-3.73 56.06 -3.87 57.53 -4 59 C-4.66 59 -5.32 59 -6 59 C-6.76 48.55 -7.15 38.1 -7.25 27.62 C-7.27 26.56 -7.29 25.49 -7.31 24.39 C-7.39 7.04 -7.39 7.04 -2.46 1.16 C-1 0 -1 0 0 0 Z " fill="#DF3B0F" transform="translate(1059,617)"/>
<path d="M0 0 C2.09 3.14 2.39 4.55 2.82 8.2 C3 9.75 3 9.75 3.19 11.34 C3.31 12.44 3.44 13.55 3.56 14.69 C3.69 15.82 3.82 16.96 3.95 18.13 C5.7 33.8 6.15 49.24 6 65 C5.67 65 5.34 65 5 65 C4.97 64.34 4.95 63.67 4.92 62.99 C4.87 62.11 4.81 61.22 4.75 60.31 C4.7 59.44 4.66 58.57 4.61 57.68 C4.19 54.86 4.19 54.86 2.04 52.74 C-0.81 48.9 -0.95 45.49 -1.31 40.81 C-1.39 39.94 -1.47 39.06 -1.55 38.16 C-2.13 30.69 -1.89 23.38 -1.29 15.92 C-1.02 12.26 -0.99 8.67 -1 5 C-0.71 3.32 -0.4 1.65 0 0 Z " fill="#DF3A0D" transform="translate(393,892)"/>
<path d="M0 0 C0.33 0 0.66 0 1 0 C1.53 17.98 0.75 36.36 -3 54 C-5.5 50.26 -5.45 47.1 -5.62 42.75 C-5.66 41.95 -5.7 41.15 -5.74 40.32 C-5.84 37.88 -5.92 35.44 -6 33 C-6.02 32.3 -6.05 31.6 -6.07 30.88 C-6.75 7.83 -6.75 7.83 0 0 Z " fill="#DF3A0D" transform="translate(1052,680)"/>
<path d="M0 0 C0.33 0 0.66 0 1 0 C1.42 13.33 0.73 26.48 -0.38 39.75 C-0.44 40.54 -0.5 41.32 -0.57 42.13 C-1.22 50.21 -1.93 58.13 -4 66 C-4.33 66 -4.66 66 -5 66 C-5.91 56.95 -6.21 47.97 -6.25 38.88 C-6.27 37.58 -6.29 36.29 -6.31 34.96 C-6.34 27.61 -6.08 20.79 -3 14 C-2.34 13.34 -1.68 12.68 -1 12 C-0.54 9.11 -0.54 9.11 -0.38 5.88 C-0.26 4.23 -0.26 4.23 -0.15 2.55 C-0.1 1.71 -0.05 0.87 0 0 Z " fill="#DF3A0E" transform="translate(1030,924)"/>
<path d="M0 0 C0.19 8.41 -0.46 16.69 -1.23 25.06 C-1.44 27.39 -1.64 29.72 -1.85 32.05 C-1.98 33.54 -2.11 35.03 -2.25 36.52 C-2.31 37.22 -2.37 37.91 -2.43 38.62 C-2.73 41.83 -3.09 44.9 -4 48 C-4.66 48 -5.32 48 -6 48 C-10.41 18 -10.41 18 -5 4 C-1.54 0 -1.54 0 0 0 Z " fill="#DF3A0D" transform="translate(1065,555)"/>
<path d="M0 0 C4.17 3.33 5.09 6.94 6 12 C6.21 13.07 6.41 14.14 6.62 15.25 C7.73 26.32 6.46 37.03 5 48 C4.67 48 4.34 48 4 48 C3.8 45.98 3.61 43.96 3.41 41.95 C3.14 39.77 3.14 39.77 1 38 C0.59 36.19 0.59 36.19 0.37 33.99 C0.28 33.18 0.2 32.36 0.11 31.52 C0.03 30.65 -0.04 29.78 -0.12 28.88 C-0.21 27.98 -0.29 27.09 -0.38 26.18 C-2.28 4.56 -2.28 4.56 0 0 Z " fill="#DF3A0D" transform="translate(227,684)"/>
<path d="M0 0 C5.33 4.44 6.14 10.12 6.84 16.79 C7.49 25.75 6.57 34.16 5 43 C3.68 42.67 2.36 42.34 1 42 C-2.28 6.85 -2.28 6.85 0 0 Z " fill="#DF390C" transform="translate(483,571)"/>
<path d="M0 0 C0.33 0 0.66 0 1 0 C1.39 18.45 0.28 36.82 -3 55 C-3.66 55 -4.32 55 -5 55 C-5.07 48.9 -5.13 42.8 -5.16 36.7 C-5.18 34.62 -5.2 32.55 -5.23 30.48 C-5.26 27.49 -5.28 24.5 -5.29 21.5 C-5.31 20.59 -5.32 19.67 -5.34 18.73 C-5.34 12.74 -4.56 7.47 -2 2 C-1.34 1.34 -0.68 0.68 0 0 Z " fill="#DF3B0E" transform="translate(1086,299)"/>
<path d="M0 0 C0.99 0.5 0.99 0.5 2 1 C2.49 3.32 2.49 3.32 2.82 6.41 C2.94 7.53 3.06 8.66 3.19 9.83 C3.31 11.04 3.44 12.25 3.56 13.5 C3.69 14.73 3.82 15.96 3.95 17.23 C5.38 31.17 6.2 44.98 6 59 C3.26 58 2.2 57.41 0.88 54.75 C-0.04 51.88 -0.24 49.67 -0.23 46.66 C-0.23 45.62 -0.23 44.58 -0.23 43.51 C-0.21 41.84 -0.21 41.84 -0.2 40.14 C-0.19 38.99 -0.19 37.84 -0.19 36.66 C-0.18 33 -0.15 29.35 -0.12 25.69 C-0.11 23.21 -0.11 20.72 -0.1 18.24 C-0.08 12.16 -0.04 6.08 0 0 Z " fill="#DF3B0F" transform="translate(364,569)"/>
<path d="M0 0 C0.33 0 0.66 0 1 0 C1.5 18.23 0.1 35.92 -2 54 C-2.66 54 -3.32 54 -4 54 C-4.34 49.25 -4.66 44.51 -4.96 39.76 C-5.07 38.15 -5.18 36.54 -5.3 34.93 C-7.08 10.04 -7.08 10.04 -1 1 C-0.67 0.67 -0.34 0.34 0 0 Z " fill="#DF3A0D" transform="translate(1040,812)"/>
<path d="M0 0 C0.25 0.54 0.5 1.07 0.75 1.62 C2.03 4.17 2.03 4.17 4.06 7 C6.91 11.41 7.14 14.88 7.32 20.08 C7.38 21.82 7.38 21.82 7.44 23.59 C7.48 24.8 7.52 26.01 7.56 27.25 C7.61 28.47 7.65 29.69 7.69 30.95 C7.8 33.97 7.9 36.98 8 40 C3.25 39.12 3.25 39.12 1 38 C0.59 35.34 0.59 35.34 0.37 31.8 C0.28 30.53 0.2 29.26 0.11 27.95 C0.03 26.59 -0.05 25.23 -0.12 23.88 C-0.21 22.54 -0.3 21.21 -0.39 19.88 C-1.46 2.92 -1.46 2.92 0 0 Z " fill="#DF3A0E" transform="translate(488,630)"/>
<path d="M0 0 C0.33 0 0.66 0 1 0 C1.27 9.17 0.54 18.23 -0.23 27.36 C-0.44 29.89 -0.64 32.42 -0.85 34.95 C-0.98 36.57 -1.11 38.18 -1.25 39.8 C-1.31 40.55 -1.37 41.3 -1.43 42.07 C-1.74 45.78 -2.17 49.37 -3 53 C-3.66 52.67 -4.32 52.34 -5 52 C-6.66 43.71 -6.13 34.67 -6.19 26.25 C-6.21 24.65 -6.21 24.65 -6.23 23.02 C-6.24 15.55 -6.21 8.29 -1.94 1.94 C-1.3 1.3 -0.66 0.66 0 0 Z " fill="#DF3B0E" transform="translate(1081,361)"/>
<path d="M0 0 C0.33 0 0.66 0 1 0 C3.95 18.46 5.17 36.31 5 55 C-0.85 49.45 -0.85 49.45 -1.13 44.9 C-1.13 43.69 -1.13 43.69 -1.13 42.45 C-1.13 41.54 -1.14 40.62 -1.14 39.67 C-1.14 38.68 -1.13 37.7 -1.13 36.68 C-1.13 35.67 -1.13 34.65 -1.14 33.61 C-1.14 31.46 -1.13 29.32 -1.13 27.18 C-1.13 23.88 -1.13 20.59 -1.14 17.29 C-1.14 15.21 -1.13 13.13 -1.13 11.05 C-1.13 10.06 -1.14 9.07 -1.14 8.05 C-1.13 6.68 -1.13 6.68 -1.13 5.29 C-1.13 4.48 -1.13 3.68 -1.13 2.85 C-1 1 -1 1 0 0 Z " fill="#DF390C" transform="translate(376,699)"/>
<path d="M0 0 C0.33 0 0.66 0 1 0 C1.22 10.45 1.01 20.77 0.12 31.19 C0.05 32.14 -0.03 33.1 -0.11 34.08 C-0.62 39.57 -1.51 44.69 -3 50 C-3.33 50 -3.66 50 -4 50 C-4.9 45.33 -5.19 40.78 -5.24 36.04 C-5.25 35.29 -5.25 34.54 -5.26 33.77 C-5.28 32.19 -5.29 30.61 -5.3 29.03 C-5.31 27.43 -5.33 25.83 -5.36 24.23 C-5.66 7.75 -5.66 7.75 -1 1 C-0.67 0.67 -0.34 0.34 0 0 Z " fill="#DF3B0F" transform="translate(1046,748)"/>
<path d="M0 0 C-2 3 -2 3 -5.59 3.84 C-7.04 4.07 -8.49 4.29 -9.94 4.5 C-16.12 5.37 -16.12 5.37 -21 9 C-23.68 9.8 -26.27 10.47 -29 11.06 C-34.77 12.31 -34.77 12.31 -40 15 C-42.7 15.2 -42.7 15.2 -45.69 15.12 C-47.18 15.1 -47.18 15.1 -48.7 15.07 C-49.46 15.05 -50.22 15.02 -51 15 C-50.34 14.34 -49.68 13.68 -49 13 C-50.32 12.67 -51.64 12.34 -53 12 C-34.95 6.65 -34.95 6.65 -28.09 4.83 C-25.49 4.13 -22.9 3.41 -20.32 2.67 C-18.61 2.2 -16.9 1.72 -15.19 1.25 C-14.37 1.01 -13.56 0.78 -12.72 0.54 C-8.11 -0.72 -4.75 -1.25 0 0 Z " fill="#E1461B" transform="translate(794,1043)"/>
<path d="M0 0 C5.79 8.68 4.26 22.33 4.12 32.38 C4.11 33.71 4.11 35.04 4.1 36.38 C4.07 39.58 4.04 42.79 4 46 C-2.72 39.49 -2 32.22 -2.17 23.16 C-2.24 15.28 -1.49 7.76 0 0 Z " fill="#DF390C" transform="translate(354,457)"/>
<path d="M0 0 C2.21 0.43 3.98 0.99 6 2 C6.1 10.94 5.95 19.73 5.22 28.65 C4.88 33.77 4.92 38.87 5 44 C-0.54 39.18 0.45 31.21 -0.06 24.38 C-0.2 22.67 -0.2 22.67 -0.34 20.93 C-1.42 6.79 -1.42 6.79 -1 1 C-0.67 0.67 -0.34 0.34 0 0 Z " fill="#DF3A0E" transform="translate(188,251)"/>
<path d="M0 0 C0.33 0 0.66 0 1 0 C1.27 30.18 1.27 30.18 -1 37 C-2.94 36.69 -2.94 36.69 -5 36 C-8.16 26.52 -6.59 13.14 -3 4 C-1.46 1.68 -1.46 1.68 0 0 Z " fill="#DF3A0D" transform="translate(1012,1130)"/>
<path d="M0 0 C3.05 4.58 3.02 9.48 3.62 14.88 C3.76 16.03 3.89 17.18 4.02 18.37 C5.15 28.94 5.3 39.38 5 50 C1.43 46.8 -0.64 44.86 -1 40 C-1.36 31.13 -0.88 22.33 -0.22 13.48 C0.07 8.98 0.1 4.51 0 0 Z " fill="#DF390C" transform="translate(359,516)"/>
<path d="M0 0 C2.4 3.6 3.12 6.2 3.32 10.43 C3.36 11.3 3.4 12.17 3.44 13.07 C3.5 14.46 3.5 14.46 3.56 15.88 C3.6 16.81 3.65 17.75 3.69 18.72 C3.99 25.82 4.12 32.9 4 40 C0.84 38.63 0.01 38.01 -2 35 C-2.26 31.77 -2.26 31.77 -2.27 27.81 C-2.27 27.11 -2.27 26.41 -2.27 25.69 C-2.27 24.22 -2.27 22.74 -2.26 21.27 C-2.25 19.01 -2.26 16.75 -2.27 14.49 C-2.27 13.06 -2.27 11.62 -2.27 10.19 C-2.26 8.23 -2.26 8.23 -2.26 6.23 C-2 3 -2 3 0 0 Z " fill="#DF3B0E" transform="translate(389,844)"/>
<path d="M0 0 C0.33 34.98 0.66 69.96 1 106 C0.01 106.5 0.01 106.5 -1 107 C-1 73.01 -1 39.02 -1 4 C-15.85 3.5 -15.85 3.5 -31 3 C-31.33 2.34 -31.66 1.68 -32 1 C-27.42 0.83 -22.83 0.67 -18.25 0.5 C-16.95 0.45 -15.65 0.4 -14.3 0.36 C-12.43 0.29 -12.43 0.29 -10.52 0.22 C-9.36 0.18 -8.21 0.13 -7.02 0.09 C-4.68 0.02 -2.34 0 0 0 Z " fill="#EAE8E7" transform="translate(515,65)"/>
<path d="M0 0 C3.38 -0.12 3.38 -0.12 7 0 C9 2 9 2 9.18 5.87 C9.05 11.62 8.6 17.34 8.12 23.06 C8.05 24.1 7.97 25.14 7.89 26.21 C7.41 32.01 6.6 37.4 5 43 C4.67 43 4.34 43 4 43 C3.97 42.28 3.95 41.56 3.92 40.82 C3.81 37.52 3.68 34.23 3.56 30.94 C3.52 29.8 3.48 28.67 3.44 27.5 C3.23 21.92 2.88 16.51 2 11 C1.85 8.3 1.91 5.71 2 3 C2.33 2.67 2.66 2.34 3 2 C2.01 1.34 1.02 0.68 0 0 Z " fill="#DF3D11" transform="translate(1083,251)"/>
<path d="M0 0 C0.99 0.33 1.98 0.66 3 1 C3.34 5.35 3.67 9.71 4 14.06 C4.1 15.29 4.19 16.52 4.29 17.79 C5.28 30.9 5.28 30.9 5 35 C4.34 35.66 3.68 36.32 3 37 C-4.52 26.81 -2.49 13.05 -1 1 C-0.67 0.67 -0.34 0.34 0 0 Z " fill="#DF390C" transform="translate(371,654)"/>
<path d="M0 0 C3.75 3.75 3.28 8.68 3.56 13.75 C3.6 14.49 3.65 15.23 3.69 15.99 C4.1 23.66 4.09 31.32 4 39 C0.34 35.72 -1.37 33.87 -2 29 C-2.22 24.44 -2.19 19.88 -2.19 15.31 C-2.2 14.06 -2.21 12.82 -2.22 11.53 C-2.23 10.34 -2.23 9.15 -2.23 7.93 C-2.23 6.84 -2.24 5.75 -2.24 4.63 C-2 2 -2 2 0 0 Z " fill="#DF390C" transform="translate(400,971)"/>
<path d="M0 0 C1.71 1.62 3.37 3.29 5 5 C5 5.66 5 6.32 5 7 C4.01 7.33 3.02 7.66 2 8 C2.01 9.08 2.01 10.16 2.02 11.27 C2.03 15.33 2.05 19.4 2.05 23.47 C2.06 25.21 2.07 26.96 2.08 28.71 C2.19 52.59 2.19 52.59 1 60 C0.34 60.66 -0.32 61.32 -1 62 C-1 61.41 -1 60.82 -0.99 60.21 C-0.97 54.06 -0.96 47.92 -0.95 41.77 C-0.94 39.47 -0.93 37.18 -0.92 34.89 C-0.91 31.59 -0.91 28.29 -0.9 24.99 C-0.9 23.96 -0.89 22.94 -0.89 21.88 C-0.89 20.92 -0.89 19.96 -0.89 18.97 C-0.88 18.13 -0.88 17.29 -0.88 16.42 C-0.94 13.94 -0.94 13.94 -1.57 11.35 C-2.13 8.32 -1.21 6.78 0 4 C0 2.68 0 1.36 0 0 Z " fill="#EBEBEB" transform="translate(715,103)"/>
<path d="M0 0 C0.33 0 0.66 0 1 0 C1 18.48 1 36.96 1 56 C0.67 55.34 0.34 54.68 0 54 C-0.66 54 -1.32 54 -2 54 C-2 37.5 -2 21 -2 4 C-1.34 4 -0.68 4 0 4 C0 2.68 0 1.36 0 0 Z " fill="#C8BCB8" transform="translate(1011,116)"/>
<path d="M0 0 C2.65 0.97 3.78 1.6 5.15 4.12 C6.22 7.75 6.04 10.67 5.75 14.44 C5.66 15.71 5.57 16.99 5.48 18.31 C5.03 21.78 4.23 24.73 3 28 C0.28 26.11 -0.03 24.87 -0.69 21.56 C-1.34 14.39 -1.62 7.05 0 0 Z " fill="#DF370A" transform="translate(507,840)"/>
<path d="M0 0 C8.55 -0.66 13.96 -0.78 20.7 4.68 C24.48 6.85 28.18 6.2 32.4 5.72 C33.26 5.81 34.12 5.91 35 6 C36.85 8.5 36.85 8.5 38 11 C32.03 11.25 27.29 10.51 21.62 8.69 C20.89 8.46 20.15 8.23 19.39 8 C17.93 7.55 16.47 7.09 15.01 6.63 C12.33 5.79 9.63 4.99 6.94 4.19 C5.62 3.79 4.31 3.4 3 3 C3 2.34 3 1.68 3 1 C2.01 0.67 1.02 0.34 0 0 Z " fill="#DF3A0E" transform="translate(589,1263)"/>
<path d="M0 0 C0.33 0 0.66 0 1 0 C4.04 21.65 4.04 21.65 2 27 C-0.05 28.25 -0.05 28.25 -2 29 C-2 30.98 -2 32.96 -2 35 C-2.33 35 -2.66 35 -3 35 C-3.92 26.58 -4.11 18.61 -3.19 10.19 C-3.11 9.41 -3.02 8.62 -2.94 7.82 C-2.26 2.26 -2.26 2.26 0 0 Z " fill="#E0390B" transform="translate(885,894)"/>
<path d="M0 0 C-0.33 0.99 -0.66 1.98 -1 3 C-3.77 3.95 -3.77 3.95 -7.25 4.69 C-8.39 4.94 -9.53 5.19 -10.7 5.45 C-14 6 -14 6 -16.82 5.96 C-17.9 5.98 -17.9 5.98 -19 6 C-19.56 6.66 -20.11 7.32 -20.69 8 C-24.34 11.16 -28.36 10.32 -33 10 C-33 9.01 -33 8.02 -33 7 C-26.67 4.48 -20.27 2.41 -13.69 0.69 C-13.02 0.5 -12.35 0.32 -11.66 0.13 C-7.44 -0.93 -4.23 -1.02 0 0 Z " fill="#E03F12" transform="translate(733,1060)"/>
<path d="M0 0 C0.66 0.33 1.32 0.66 2 1 C4.74 9.21 4.94 20.38 4 29 C3.34 29.66 2.68 30.32 2 31 C2 30.34 2 29.68 2 29 C1.01 29 0.02 29 -1 29 C-3.6 19.61 -1.3 9.47 0 0 Z " fill="#E03A0C" transform="translate(878,954)"/>
<path d="M0 0 C0.33 0 0.66 0 1 0 C1.82 6.4 2.13 12.61 2.06 19.06 C2.06 19.93 2.05 20.79 2.05 21.69 C2.04 23.79 2.02 25.9 2 28 C0.02 28.99 0.02 28.99 -2 30 C-2 30.99 -2 31.98 -2 33 C-2.66 33 -3.32 33 -4 33 C-3.86 29.29 -3.71 25.58 -3.56 21.88 C-3.52 20.83 -3.48 19.78 -3.44 18.7 C-2.88 4.99 -2.88 4.99 0 0 Z " fill="#E24B21" transform="translate(902,701)"/>
<path d="M0 0 C0.33 0 0.66 0 1 0 C1.13 14.68 1.26 29.36 1.39 44.04 C1.45 50.86 1.51 57.68 1.57 64.49 C1.63 71.07 1.69 77.64 1.75 84.22 C1.77 86.73 1.79 89.24 1.81 91.76 C1.85 95.27 1.88 98.78 1.91 102.29 C1.92 103.33 1.93 104.38 1.94 105.46 C1.95 106.89 1.95 106.89 1.96 108.35 C1.97 109.18 1.98 110.01 1.98 110.87 C2 112.58 2 114.29 2 116 C1.34 115.67 0.68 115.34 0 115 C0 77.05 0 39.1 0 0 Z " fill="#212224" transform="translate(927,0)"/>
<path d="M0 0 C0.66 0.99 1.32 1.98 2 3 C2.66 2.67 3.32 2.34 4 2 C4.92 4.77 5.12 6.38 5.1 9.23 C5.09 10.03 5.09 10.84 5.09 11.66 C5.08 12.91 5.08 12.91 5.06 14.19 C5.06 15.03 5.05 15.88 5.05 16.75 C5.04 18.83 5.02 20.92 5 23 C3.68 23 2.36 23 1 23 C1 25.31 1 27.62 1 30 C0.67 30 0.34 30 0 30 C-2.08 20.12 -0.8 9.97 0 0 Z " fill="#E0370A" transform="translate(922,454)"/>
<path d="M0 0 C2.05 0.03 4.1 0.07 6.15 0.1 C5.28 3.97 5.28 3.97 4.15 5.1 C2.26 5.45 0.37 5.75 -1.54 6.04 C-4.9 6.56 -7.78 7.07 -10.97 8.29 C-15.33 9.52 -19.42 8.75 -23.85 8.1 C-21.61 5.86 -20.54 5.59 -17.53 4.84 C-16.26 4.52 -16.26 4.52 -14.97 4.19 C-13.64 3.87 -13.64 3.87 -12.29 3.54 C-10.53 3.1 -8.78 2.66 -7.03 2.22 C-6.25 2.03 -5.48 1.84 -4.67 1.64 C-2.57 1.02 -2.2 0.12 0 0 Z " fill="#E35228" transform="translate(665.84765625,1075.90234375)"/>
<path d="M0 0 C0.33 0.66 0.66 1.32 1 2 C2.32 2 3.64 2 5 2 C5 7.28 5 12.56 5 18 C4.34 18 3.68 18 3 18 C2.67 18.66 2.34 19.32 2 20 C0.52 18.9 0.52 18.9 -1 17 C-1.33 14 -1.33 14 -1.25 10.56 C-1.23 9.43 -1.22 8.3 -1.2 7.13 C-1.04 4.58 -0.74 2.43 0 0 Z " fill="#E03A0C" transform="translate(762,902)"/>
<path d="M0 0 C18.15 0 36.3 0 55 0 C55 0.33 55 0.66 55 1 C53.82 1.02 52.65 1.04 51.44 1.06 C47.06 1.14 42.68 1.23 38.29 1.32 C36.4 1.36 34.51 1.39 32.62 1.42 C29.89 1.47 27.16 1.53 24.43 1.59 C23.59 1.6 22.76 1.61 21.89 1.62 C16.93 1.74 12.68 2.27 8 4 C7.67 4.66 7.34 5.32 7 6 C4.62 6.19 4.62 6.19 2 6 C0 3 0 3 0 0 Z " fill="#E04A24" transform="translate(640,786)"/>
<path d="M0 0 C4.43 -0.02 8.86 -0.04 13.29 -0.05 C14.79 -0.06 16.3 -0.07 17.8 -0.08 C19.97 -0.09 22.14 -0.09 24.32 -0.1 C25.62 -0.1 26.92 -0.11 28.27 -0.11 C31.94 -0 35.4 0.28 39 1 C39.5 1.99 39.5 1.99 40 3 C31.48 4.92 22.86 3.96 14.24 3.22 C9.49 2.9 4.76 2.91 0 3 C0 2.01 0 1.02 0 0 Z " fill="#EBEBEB" transform="translate(574,65)"/>
<path d="M0 0 C-0.33 0.99 -0.66 1.98 -1 3 C-14.53 3 -28.06 3 -42 3 C-42 2.34 -42 1.68 -42 1 C-36.5 0.86 -31 0.71 -25.5 0.57 C-23.63 0.52 -21.76 0.48 -19.89 0.43 C-17.2 0.36 -14.51 0.29 -11.82 0.22 C-10.99 0.2 -10.15 0.18 -9.29 0.15 C-6.19 0.07 -3.1 0 0 0 Z " fill="#EFE5E2" transform="translate(625,55)"/>
<path d="M0 0 C6.51 0.13 11.76 1.52 16.38 6.31 C17.37 6.97 18.36 7.63 19.38 8.31 C10.32 7.82 1.98 4.99 -6.62 2.31 C-4.17 -0.15 -3.39 0.02 0 0 Z " fill="#DF3D11" transform="translate(572.625,1256.6875)"/>
<path d="M0 0 C0.33 0 0.66 0 1 0 C1.89 8.69 2.12 17.27 2 26 C0.68 26 -0.64 26 -2 26 C-4.69 20.63 -3 12.75 -2 7 C-1.67 7 -1.34 7 -1 7 C-0.67 4.69 -0.34 2.38 0 0 Z " fill="#E03A0C" transform="translate(919,510)"/>
<path d="M0 0 C0.33 0 0.66 0 1 0 C1.75 7.69 2.14 15.27 2 23 C0.68 23.33 -0.64 23.66 -2 24 C-3.15 19.91 -3.11 15.97 -3.06 11.75 C-3.06 11 -3.05 10.26 -3.05 9.49 C-3.04 7.66 -3.02 5.83 -3 4 C-2.01 4.5 -2.01 4.5 -1 5 C-0.67 3.35 -0.34 1.7 0 0 Z " fill="#E03709" transform="translate(891,829)"/>
<path d="M0 0 C2.3 0.48 4.07 1.3 6.11 2.44 C-8.24 9.14 -8.24 9.14 -13.89 7.44 C-9.72 2.19 -6.86 -0.38 0 0 Z " fill="#DF3A0D" transform="translate(683.88671875,1261.55859375)"/>
<path d="M0 0 C0.99 0.5 0.99 0.5 2 1 C2 3.64 2 6.28 2 9 C2.66 9 3.32 9 4 9 C4 16.59 4 24.18 4 32 C3.34 32 2.68 32 2 32 C-0.39 9.2 -0.39 9.2 0 0 Z " fill="#DE451D" transform="translate(229,723)"/>
<path d="M0 0 C6.15 -0.38 10.39 0.14 16 3 C17.13 3.56 18.27 4.11 19.44 4.69 C20.28 5.12 21.13 5.55 22 6 C22 6.33 22 6.66 22 7 C14.63 7.58 7.78 5.98 1 3 C0.67 2.01 0.34 1.02 0 0 Z " fill="#DF390C" transform="translate(302,1183)"/>
<path d="M0 0 C1.69 2 1.69 2 3 4 C3.99 4.33 4.98 4.66 6 5 C6 5.66 6 6.32 6 7 C1.47 6.49 -2.93 5.64 -7.38 4.62 C-8.41 4.39 -9.45 4.16 -10.52 3.91 C-11.75 3.46 -11.75 3.46 -13 3 C-13.33 2.01 -13.66 1.02 -14 0 C-4.75 -1.44 -4.75 -1.44 0 0 Z " fill="#DF3D11" transform="translate(296,1178)"/>
<path d="M0 0 C1.71 1.62 3.37 3.29 5 5 C5 5.66 5 6.32 5 7 C4.01 7.33 3.02 7.66 2 8 C2 15.26 2 22.52 2 30 C-1 27 -1 27 -1.26 24.04 C-1.21 22.91 -1.17 21.79 -1.12 20.62 C-0.96 15.91 -0.96 15.91 -1.55 11.25 C-2.14 8.28 -1.19 6.73 0 4 C0 2.68 0 1.36 0 0 Z " fill="#E6D3CE" transform="translate(715,103)"/>
<path d="M0 0 C-0.59 0.29 -1.17 0.57 -1.77 0.87 C-3.13 1.56 -4.47 2.27 -5.79 3.04 C-11.12 6.02 -15.94 6.75 -22 7 C-22.33 5.68 -22.66 4.36 -23 3 C-15.18 0.41 -8.22 -0.39 0 0 Z " fill="#DF390B" transform="translate(848,1029)"/>
<path d="M0 0 C0 0.99 0 1.98 0 3 C-3.93 4.85 -6.99 5.22 -11.31 5.12 C-12.38 5.11 -13.45 5.09 -14.55 5.07 C-15.36 5.05 -16.17 5.02 -17 5 C-17.33 4.01 -17.66 3.02 -18 2 C-4.78 -2.39 -4.78 -2.39 0 0 Z " fill="#E03B0D" transform="translate(820,1036)"/>
<path d="M0 0 C0 0.99 0 1.98 0 3 C-14.85 2.5 -14.85 2.5 -30 2 C-30.33 1.34 -30.66 0.68 -31 0 C-27.07 -0.17 -23.13 -0.33 -19.2 -0.48 C-17.21 -0.56 -15.21 -0.65 -13.22 -0.73 C-11.96 -0.78 -10.71 -0.83 -9.42 -0.88 C-7.68 -0.95 -7.68 -0.95 -5.91 -1.02 C-3 -1 -3 -1 0 0 Z " fill="#EBEBEB" transform="translate(514,66)"/>
<path d="M0 0 C0.99 0 1.98 0 3 0 C4.17 7.34 4.09 14.58 4 22 C2.68 22 1.36 22 0 22 C0 14.74 0 7.48 0 0 Z " fill="#E03709" transform="translate(894,770)"/>
<path d="M0 0 C0.33 0 0.66 0 1 0 C2.19 8.34 2.09 16.59 2 25 C1.01 25 0.02 25 -1 25 C-1.23 21.58 -1.43 18.17 -1.62 14.75 C-1.69 13.78 -1.75 12.81 -1.82 11.82 C-1.87 10.88 -1.92 9.95 -1.98 8.98 C-2.03 8.13 -2.08 7.27 -2.14 6.38 C-1.99 3.77 -1.32 2.23 0 0 Z " fill="#E03709" transform="translate(902,701)"/>
<path d="M0 0 C-1 3 -1 3 -2.61 4.15 C-5.83 5.3 -8.84 5.44 -12.25 5.62 C-13.51 5.7 -14.78 5.77 -16.08 5.85 C-17.52 5.93 -17.52 5.93 -19 6 C-18.67 5.01 -18.34 4.02 -18 3 C-12.21 0.26 -6.31 -0.35 0 0 Z " fill="#E03C0F" transform="translate(695,1070)"/>
<path d="M0 0 C0.33 0 0.66 0 1 0 C1 5.28 1 10.56 1 16 C-0.32 16 -1.64 16 -3 16 C-3 11.38 -3 6.76 -3 2 C-2.01 2 -1.02 2 0 2 C0 1.34 0 0.68 0 0 Z " fill="#E03709" transform="translate(771,839)"/>
<path d="M0 0 C0.62 1.88 0.62 1.88 1 4 C-1 6 -1 6 -3.6 6.2 C-4.6 6.17 -5.6 6.15 -6.62 6.12 C-8.13 6.1 -8.13 6.1 -9.66 6.07 C-10.43 6.05 -11.21 6.02 -12 6 C-11.34 5.34 -10.68 4.68 -10 4 C-11.32 3.67 -12.64 3.34 -14 3 C-4.59 -0.44 -4.59 -0.44 0 0 Z " fill="#E03A0D" transform="translate(755,1052)"/>
<path d="M0 0 C1.94 2.5 1.94 2.5 3 5 C-2.99 5.32 -6.64 4.68 -12 2 C-12 1.67 -12 1.34 -12 1 C-7.92 0.01 -4.18 -0.46 0 0 Z " fill="#DF390C" transform="translate(624,1269)"/>
<path d="M0 0 C-0.33 0.99 -0.66 1.98 -1 3 C-3.94 3.95 -3.94 3.95 -7.56 4.69 C-9.36 5.06 -9.36 5.06 -11.19 5.45 C-12.58 5.72 -12.58 5.72 -14 6 C-14.33 5.34 -14.66 4.68 -15 4 C-10.5 -0.5 -6.11 -1.22 0 0 Z " fill="#E0380A" transform="translate(733,1060)"/>
<path d="M0 0 C-2 3 -2 3 -4.14 3.73 C-9.18 4.63 -13.88 5.22 -19 5 C-14.42 -0.32 -6.6 -1.91 0 0 Z " fill="#E03A0D" transform="translate(794,1043)"/>
<path d="M0 0 C0.33 0 0.66 0 1 0 C1.11 7.1 0.94 13.96 0 21 C-0.66 21 -1.32 21 -2 21 C-2 22.98 -2 24.96 -2 27 C-2.33 27 -2.66 27 -3 27 C-4.32 20.55 -3.7 14.51 -3 8 C-2.34 8.33 -1.68 8.66 -1 9 C-0.67 6.03 -0.34 3.06 0 0 Z " fill="#E14D26" transform="translate(898,749)"/>
<path d="M0 0 C0 0.66 0 1.32 0 2 C0.66 2 1.32 2 2 2 C1.67 2.99 1.34 3.98 1 5 C-1.64 5.33 -4.28 5.66 -7 6 C-7.66 4.68 -8.32 3.36 -9 2 C-5.87 0.14 -3.63 -0.2 0 0 Z " fill="#E03A0C" transform="translate(701,943)"/>
<path d="M0 0 C0.33 0 0.66 0 1 0 C1.05 2.21 1.09 4.42 1.12 6.62 C1.15 7.85 1.17 9.08 1.2 10.35 C1 13.97 0.25 16.62 -1 20 C-1.38 22.33 -1.72 24.66 -2 27 C-2.33 27 -2.66 27 -3 27 C-3.18 13.37 -3.18 13.37 -2 7 C-1.67 7 -1.34 7 -1 7 C-0.67 4.69 -0.34 2.38 0 0 Z " fill="#E24B20" transform="translate(892,814)"/>
<path d="M0 0 C-0.88 3.88 -0.88 3.88 -2 5 C-3.69 5.07 -5.38 5.08 -7.06 5.06 C-7.98 5.05 -8.9 5.04 -9.85 5.04 C-10.56 5.02 -11.27 5.01 -12 5 C-12.33 4.01 -12.66 3.02 -13 2 C-8.5 -0.25 -4.92 -0.17 0 0 Z " fill="#DF380A" transform="translate(672,1076)"/>
<path d="M0 0 C1.81 2.5 1.81 2.5 3 5 C2 6 2 6 0.15 6.1 C-1.9 6.07 -3.95 6.03 -6 6 C-6 5.34 -6 4.68 -6 4 C-7.65 3.67 -9.3 3.34 -11 3 C-11 2.67 -11 2.34 -11 2 C-3.73 -0.71 -3.73 -0.71 0 0 Z " fill="#E03A0B" transform="translate(856,1024)"/>
<path d="M0 0 C0.66 0 1.32 0 2 0 C2 3.3 2 6.6 2 10 C2.66 10 3.32 10 4 10 C4 10.99 4 11.98 4 13 C3.01 13.5 3.01 13.5 2 14 C1.34 17.03 1.34 17.03 1 20 C-1.08 16.88 -1.24 16.46 -0.98 12.99 C-0.92 12.23 -0.87 11.47 -0.82 10.69 C-0.76 9.91 -0.69 9.12 -0.62 8.31 C-0.57 7.52 -0.51 6.72 -0.45 5.9 C-0.31 3.93 -0.16 1.97 0 0 Z " fill="#E55021" transform="translate(893,781)"/>
<path d="M0 0 C0.66 0 1.32 0 2 0 C3.26 2.52 3.1 4.31 3.06 7.12 C3.05 8.04 3.04 8.95 3.04 9.88 C3.02 10.58 3.01 11.28 3 12 C2.67 12 2.34 12 2 12 C1.67 13.65 1.34 15.3 1 17 C-1.38 13.33 -1.05 10.51 -0.62 6.25 C-0.51 5.08 -0.4 3.91 -0.29 2.7 C-0.19 1.81 -0.1 0.92 0 0 Z " fill="#E35329" transform="translate(884,883)"/>
<path d="M0 0 C-1.32 0.33 -2.64 0.66 -4 1 C-4 1.66 -4 2.32 -4 3 C-5.64 3.22 -5.64 3.22 -7.31 3.44 C-10.93 3.88 -10.93 3.88 -14 5 C-14.66 4.67 -15.32 4.34 -16 4 C-16 3.34 -16 2.68 -16 2 C-4.57 -2.29 -4.57 -2.29 0 0 Z " fill="#E2542B" transform="translate(747,1056)"/>
<path d="M0 0 C0.33 1.32 0.66 2.64 1 4 C1.66 4 2.32 4 3 4 C3 5.98 3 7.96 3 10 C2.67 10 2.34 10 2 10 C1.67 13.63 1.34 17.26 1 21 C0.67 21 0.34 21 0 21 C-0.89 13.81 -1.01 7.18 0 0 Z " fill="#E85B28" transform="translate(918,501)"/>
<path d="M0 0 C0.99 0.33 1.98 0.66 3 1 C3 4.96 3 8.92 3 13 C2.01 13.49 2.01 13.49 1 14 C-0.38 11.24 -0.1 8.95 -0.06 5.88 C-0.05 4.78 -0.04 3.68 -0.04 2.55 C-0.02 1.71 -0.01 0.87 0 0 Z " fill="#DE4016" transform="translate(264,1112)"/>
<path d="M0 0 C0.66 0.99 1.32 1.98 2 3 C-1.23 5.15 -2.28 5.2 -6 5 C-6.66 3.68 -7.32 2.36 -8 1 C-5.21 -0.39 -3.08 -0.26 0 0 Z " fill="#E03709" transform="translate(743,932)"/>
<path d="M0 0 C0.66 0 1.32 0 2 0 C2 1.32 2 2.64 2 4 C3.32 4.33 4.64 4.66 6 5 C4.68 7.31 3.36 9.62 2 12 C0 10 0 10 -0.2 7.62 C-0.17 6.71 -0.15 5.81 -0.12 4.88 C-0.11 3.96 -0.09 3.05 -0.07 2.12 C-0.05 1.42 -0.02 0.72 0 0 Z " fill="#E24E26" transform="translate(887,849)"/>
<path d="M0 0 C0.66 0 1.32 0 2 0 C2 3.3 2 6.6 2 10 C3.32 10 4.64 10 6 10 C5.67 11.65 5.34 13.3 5 15 C4.67 14.34 4.34 13.68 4 13 C3.01 13 2.02 13 1 13 C0.13 10.01 -0.11 7.36 -0.06 4.25 C-0.05 3.45 -0.04 2.65 -0.04 1.83 C-0.02 1.22 -0.01 0.62 0 0 Z " fill="#E24A1F" transform="translate(876,970)"/>
<path d="M0 0 C0.66 0 1.32 0 2 0 C2.09 5.15 1.85 9.92 1 15 C0.34 14.67 -0.32 14.34 -1 14 C-1.03 11.85 -1.05 9.71 -1.06 7.56 C-1.07 6.37 -1.09 5.17 -1.1 3.94 C-1 1 -1 1 0 0 Z " fill="#DD451C" transform="translate(1059,603)"/>
<path d="M0 0 C0.33 0 0.66 0 1 0 C0.89 2.96 0.76 5.92 0.62 8.88 C0.59 9.72 0.56 10.56 0.53 11.43 C0.49 12.23 0.45 13.04 0.41 13.87 C0.37 14.98 0.37 14.98 0.32 16.12 C0 18 0 18 -2 20 C-2.05 17.79 -2.09 15.58 -2.12 13.38 C-2.15 12.15 -2.17 10.92 -2.2 9.65 C-2 6.06 -1.3 3.33 0 0 Z " fill="#DE471F" transform="translate(1066,535)"/>
<path d="M0 0 C0.66 0.33 1.32 0.66 2 1 C2 2.98 2 4.96 2 7 C0.35 7.33 -1.3 7.66 -3 8 C-3.99 6.68 -4.98 5.36 -6 4 C-4.79 3.57 -4.79 3.57 -3.56 3.12 C-0.87 2.27 -0.87 2.27 0 0 Z " fill="#E03709" transform="translate(763,923)"/>
<path d="M0 0 C0.33 0.66 0.66 1.32 1 2 C-5.69 3.49 -11.24 4.28 -18 3 C-18 2.67 -18 2.34 -18 2 C-11.88 0.6 -6.28 -0.23 0 0 Z " fill="#E44C1D" transform="translate(777,784)"/>
<path d="M0 0 C0 0.66 0 1.32 0 2 C-3.23 4.15 -4.28 4.2 -8 4 C-8.33 2.68 -8.66 1.36 -9 0 C-5.93 -1.53 -3.3 -0.55 0 0 Z " fill="#E03709" transform="translate(661,956)"/>
<path d="M0 0 C0.33 0 0.66 0 1 0 C1.75 6.37 2.1 12.58 2 19 C1.34 19 0.68 19 0 19 C-0.89 12.42 -0.95 6.58 0 0 Z " fill="#DC4A24" transform="translate(371,635)"/>
<path d="M0 0 C1.08 0.01 2.16 0.02 3.27 0.03 C4.09 0.04 4.91 0.05 5.75 0.06 C4.82 0.52 4.82 0.52 3.88 0.99 C2.47 1.7 1.07 2.43 -0.31 3.19 C-2.25 4.06 -2.25 4.06 -5.25 4.06 C-5.25 3.4 -5.25 2.74 -5.25 2.06 C-6.9 2.39 -8.55 2.72 -10.25 3.06 C-10.25 2.4 -10.25 1.74 -10.25 1.06 C-6.79 -0 -3.61 -0.04 0 0 Z " fill="#E14A21" transform="translate(842.25,1028.9375)"/>
<path d="M0 0 C0.33 0 0.66 0 1 0 C1.18 15.74 1.18 15.74 0 23 C-1.56 21.25 -1.56 21.25 -3 19 C-2.75 16.83 -2.56 15.56 -1 14 C-0.76 11.65 -0.59 9.29 -0.44 6.94 C-0.35 5.65 -0.27 4.36 -0.18 3.03 C-0.12 2.03 -0.06 1.03 0 0 Z " fill="#E14C26" transform="translate(881,935)"/>
<path d="M0 0 C-1.69 2.04 -2.64 2.92 -5.26 3.51 C-6.06 3.57 -6.86 3.63 -7.69 3.69 C-8.5 3.75 -9.3 3.82 -10.14 3.89 C-11.06 3.94 -11.06 3.94 -12 4 C-7.97 -0.3 -5.79 -1.41 0 0 Z " fill="#E14C24" transform="translate(683,951)"/>
<path d="M0 0 C0.66 0 1.32 0 2 0 C2 1.65 2 3.3 2 5 C3.32 5 4.64 5 6 5 C6 5.66 6 6.32 6 7 C4.02 7.99 4.02 7.99 2 9 C2 10.98 2 12.96 2 15 C1.67 15 1.34 15 1 15 C0.67 10.05 0.34 5.1 0 0 Z " fill="#E1471E" transform="translate(881,914)"/>
<path d="M0 0 C0 0.66 0 1.32 0 2 C-3.23 4.15 -4.28 4.2 -8 4 C-8 2.68 -8 1.36 -8 0 C-5.14 -1.43 -3.07 -0.6 0 0 Z " fill="#DF390B" transform="translate(724,939)"/>
<path d="M0 0 C0.33 0.99 0.66 1.98 1 3 C1.66 3 2.32 3 3 3 C3 6.63 3 10.26 3 14 C2.01 13.67 1.02 13.34 0 13 C0 8.71 0 4.42 0 0 Z " fill="#DE4117" transform="translate(224,663)"/>
<path d="M0 0 C0.66 0 1.32 0 2 0 C2 2.64 2 5.28 2 8 C3.32 7.67 4.64 7.34 6 7 C6 7.66 6 8.32 6 9 C4.68 9 3.36 9 2 9 C2 11.31 2 13.62 2 16 C1.67 16 1.34 16 1 16 C-0.13 10.64 -0.1 5.45 0 0 Z " fill="#E2491C" transform="translate(921,468)"/>
<path d="M0 0 C2.31 0.33 4.62 0.66 7 1 C6.52 1.55 6.04 2.1 5.54 2.67 C3.76 5.36 3.52 7.06 3.31 10.25 C3.21 11.59 3.21 11.59 3.11 12.95 C3.06 13.97 3.06 13.97 3 15 C2.67 15 2.34 15 2 15 C1.94 14.17 1.88 13.34 1.82 12.48 C1.73 11.39 1.65 10.31 1.56 9.19 C1.48 8.11 1.4 7.03 1.32 5.92 C1.1 2.94 1.1 2.94 0 0 Z " fill="#FDFDFD" transform="translate(391,841)"/>
<path d="M0 0 C0.66 0.99 1.32 1.98 2 3 C-0.64 3.66 -3.28 4.32 -6 5 C-6.33 4.34 -6.66 3.68 -7 3 C-7.99 3 -8.98 3 -10 3 C-10 2.34 -10 1.68 -10 1 C-6.61 -0.04 -3.54 -0.31 0 0 Z " fill="#E24F26" transform="translate(678,1074)"/>
<path d="M0 0 C2.1 2.36 2.97 3.55 3.19 6.75 C3.13 7.49 3.06 8.24 3 9 C2.01 9 1.02 9 0 9 C-1.37 6.27 -1.13 4.02 -1 1 C-0.67 0.67 -0.34 0.34 0 0 Z " fill="#FDFDFD" transform="translate(359,473)"/>
<path d="M0 0 C0.33 0 0.66 0 1 0 C0.86 2.06 0.71 4.13 0.56 6.19 C0.48 7.34 0.4 8.48 0.32 9.67 C0.05 12.52 -0.38 15.21 -1 18 C-1.33 18 -1.66 18 -2 18 C-2.37 5.33 -2.37 5.33 0 0 Z " fill="#DE4720" transform="translate(1026,985)"/>
<path d="M0 0 C-0.33 0.99 -0.66 1.98 -1 3 C-4.06 4.19 -4.06 4.19 -7 5 C-7 4.34 -7 3.68 -7 3 C-7.66 3 -8.32 3 -9 3 C-9 2.34 -9 1.68 -9 1 C-5.93 0.09 -3.2 -0.09 0 0 Z " fill="#E2542C" transform="translate(827,1033)"/>
</svg>
