<?xml version="1.0" standalone="no"?>
<!DOCTYPE svg PUBLIC "-//W3C//DTD SVG 20010904//EN"
 "http://www.w3.org/TR/2001/REC-SVG-20010904/DTD/svg10.dtd">
<svg version="1.0" xmlns="http://www.w3.org/2000/svg"
 width="3840.000000pt" height="2160.000000pt" viewBox="0 0 3840.000000 2160.000000"
 preserveAspectRatio="xMidYMid meet">

<g transform="translate(0.000000,2160.000000) scale(0.100000,-0.100000)"
fill="#000000" stroke="none">
<path d="M20634 21323 c13 -33 55 -261 65 -355 16 -145 14 -442 -5 -567 -68
-460 -257 -851 -615 -1266 -137 -160 -446 -457 -639 -615 -30 -25 -57 -47 -60
-50 -5 -6 -194 -159 -265 -215 -21 -16 -84 -66 -140 -110 -290 -227 -564 -447
-660 -529 -291 -250 -510 -466 -658 -651 -239 -297 -338 -508 -369 -787 -45
-406 166 -909 611 -1453 57 -70 177 -211 191 -225 3 -3 56 -60 118 -127 199
-214 552 -560 837 -818 60 -55 116 -106 123 -112 25 -24 22 -13 -17 66 -79
155 -237 404 -446 701 -229 324 -358 527 -455 715 -159 307 -223 545 -223 825
2 588 371 1148 1183 1795 128 102 372 309 470 399 96 88 393 388 457 461 33
39 84 97 113 130 224 259 461 633 575 910 118 284 169 502 181 765 10 223 -16
413 -87 623 -58 172 -119 288 -228 435 -53 72 -69 87 -57 55z"/>
<path d="M22215 18330 c-608 -185 -1261 -465 -1685 -723 -325 -198 -555 -372
-760 -577 -290 -290 -461 -586 -531 -920 -42 -200 -28 -476 35 -690 78 -263
240 -562 450 -830 50 -65 146 -181 157 -190 19 -17 92 -127 127 -190 201 -373
132 -776 -201 -1168 -38 -46 -79 -89 -91 -97 -11 -8 -16 -15 -11 -15 11 0 184
106 253 155 317 225 569 476 706 702 136 226 195 465 166 673 -25 190 -95 347
-247 560 -191 267 -304 433 -359 526 -157 267 -219 485 -195 684 33 267 176
512 475 814 316 319 896 736 1651 1186 226 135 250 150 235 149 -8 0 -87 -22
-175 -49z"/>
<path d="M23150 13514 c-209 -32 -386 -82 -465 -133 -22 -14 -62 -48 -90 -74
-41 -41 -46 -48 -25 -42 235 62 307 77 391 82 313 19 631 -133 813 -390 156
-221 185 -527 74 -807 -130 -329 -450 -689 -868 -975 -47 -32 -98 -69 -115
-81 -50 -37 -384 -237 -490 -293 -87 -47 -143 -90 -145 -113 0 -8 270 72 460
136 363 125 731 296 975 454 231 151 457 354 588 527 193 257 283 561 243 820
-32 213 -122 390 -275 542 -189 189 -428 303 -714 342 -73 10 -301 13 -357 5z"/>
<path d="M17175 13374 c-16 -2 -79 -9 -140 -15 -248 -25 -607 -96 -875 -174
-176 -52 -420 -135 -495 -170 -16 -7 -55 -23 -85 -35 -30 -11 -69 -27 -87 -35
-17 -8 -34 -15 -37 -15 -3 0 -62 -28 -132 -61 -159 -77 -254 -141 -288 -193
-84 -129 33 -233 376 -332 329 -94 790 -156 1548 -206 265 -18 1632 -18 1935
0 875 50 1448 113 2075 228 135 25 281 53 325 64 44 10 132 31 195 46 91 21
129 36 180 69 118 76 283 164 520 278 60 29 58 32 -8 17 -176 -41 -1189 -182
-1647 -230 -1254 -131 -2721 -175 -3635 -110 -328 24 -622 78 -754 140 -102
48 -129 105 -85 176 84 137 576 335 1304 525 61 16 115 31 120 33 12 5 -267 5
-310 0z"/>
<path d="M16810 11695 c-47 -17 -96 -36 -110 -42 -14 -6 -53 -22 -87 -37 -206
-86 -365 -202 -429 -313 -23 -37 -26 -53 -22 -107 3 -55 9 -71 40 -110 134
-173 461 -305 993 -400 1008 -182 2405 -140 3651 109 186 37 695 161 799 194
l60 19 -55 23 c-98 40 -238 116 -327 178 -85 58 -105 73 -168 132 -27 25 -34
27 -70 19 -23 -5 -79 -16 -125 -24 -47 -8 -137 -24 -201 -35 -1100 -195 -1998
-242 -3039 -160 -549 42 -707 67 -855 134 -56 25 -121 90 -131 130 -18 73 21
168 107 257 32 34 57 62 56 63 -1 0 -40 -13 -87 -30z"/>
<path d="M17115 10102 c-358 -125 -525 -258 -525 -416 1 -66 27 -123 86 -187
48 -50 162 -130 259 -181 44 -23 82 -39 245 -103 52 -21 292 -90 395 -113 659
-151 1449 -178 2240 -77 418 54 905 168 1280 301 139 49 338 126 348 134 4 4
-23 19 -60 35 -285 120 -556 253 -675 332 l-37 25 -108 -21 c-703 -135 -1366
-201 -1853 -186 -436 13 -1054 70 -1264 115 -232 51 -326 109 -326 205 0 49
20 85 76 134 26 22 43 41 38 41 -5 0 -58 -17 -119 -38z"/>
<path d="M15515 9085 c-483 -67 -1053 -263 -1380 -476 -214 -138 -318 -282
-286 -390 44 -148 290 -258 741 -333 356 -59 987 -142 1410 -185 1286 -133
2611 -164 3850 -91 964 58 1948 195 2653 371 215 53 217 54 453 129 484 154
810 336 894 500 24 47 26 116 5 168 -21 48 -97 118 -177 161 -59 32 -61 32
-40 9 29 -32 62 -118 62 -161 0 -43 -40 -124 -81 -166 -118 -118 -325 -206
-694 -296 -250 -60 -252 -60 -515 -105 -1613 -272 -4235 -349 -5960 -174 -597
60 -1083 151 -1406 264 -269 93 -337 162 -266 269 63 93 257 199 542 295 264
89 486 135 724 152 l99 7 -34 18 c-93 47 -379 64 -594 34z"/>
<path d="M24445 8155 c-263 -263 -963 -526 -1895 -711 -322 -64 -350 -69 -600
-108 -1021 -161 -2051 -236 -3240 -236 -1097 0 -2062 65 -2890 196 l-35 5 25
-15 c47 -29 225 -95 350 -130 395 -110 1034 -197 1735 -236 477 -27 605 -31
1140 -36 1139 -13 2160 46 3051 176 115 17 232 35 259 40 28 5 136 26 240 45
696 131 1253 331 1580 568 100 72 214 195 265 283 37 65 85 198 78 214 -2 3
-30 -22 -63 -55z"/>
<path d="M14237 3798 c-3 -2341 -1 -2233 -63 -2453 -68 -242 -273 -484 -556
-654 -43 -25 -77 -50 -78 -54 0 -5 62 -81 138 -169 75 -88 148 -174 162 -190
l25 -29 101 44 c395 172 711 466 852 792 43 100 59 151 82 264 55 272 53 182
57 2469 l4 2112 -360 0 -360 0 -4 -2132z"/>
<path d="M16725 4809 c-313 -14 -654 -89 -975 -216 -63 -25 -116 -47 -117 -48
-2 -1 15 -78 37 -171 23 -93 44 -184 47 -202 3 -18 9 -35 14 -37 4 -3 40 7 80
21 303 109 684 173 954 161 233 -11 387 -67 487 -176 104 -114 130 -213 132
-506 l1 -210 -295 -6 c-364 -8 -543 -30 -768 -95 -498 -144 -781 -425 -853
-847 -18 -105 -6 -372 20 -472 47 -176 148 -336 272 -430 91 -68 233 -132 363
-163 100 -24 131 -26 311 -27 174 0 214 3 305 23 231 52 439 156 652 329 44
35 82 62 84 60 4 -3 54 -327 54 -348 0 -5 106 -9 265 -9 l266 0 -3 1288 -3
1287 -27 99 c-74 267 -217 447 -447 562 -222 110 -477 150 -856 133z m663
-2206 l2 -391 -42 -37 c-72 -61 -208 -150 -305 -199 -312 -156 -647 -129 -803
66 -154 191 -142 559 22 729 157 161 437 228 943 225 l180 -1 3 -392z"/>
<path d="M22970 4813 c-207 -8 -466 -45 -648 -94 -168 -45 -462 -149 -489
-173 -10 -9 -8 -27 6 -86 10 -41 31 -129 46 -195 15 -66 31 -124 35 -128 4 -4
40 4 80 19 159 57 374 110 572 141 153 23 460 24 573 0 171 -36 308 -133 369
-261 48 -101 58 -173 60 -401 l1 -210 -295 -6 c-346 -8 -470 -21 -685 -73
-229 -56 -443 -151 -570 -253 -71 -57 -179 -173 -219 -233 -122 -186 -161
-343 -153 -615 5 -183 25 -278 84 -404 135 -286 418 -442 830 -458 385 -15
690 92 1017 355 43 35 80 62 82 60 3 -4 54 -329 54 -348 0 -6 101 -10 265 -10
l266 0 -4 1283 c-3 1418 1 1321 -69 1507 -151 405 -572 608 -1208 583z m605
-2212 l0 -395 -55 -44 c-82 -65 -81 -64 -140 -103 -191 -126 -433 -199 -605
-184 -88 9 -204 46 -260 85 -124 85 -194 240 -195 425 0 200 59 337 185 432
79 60 161 96 287 127 163 40 313 53 598 52 l185 -1 0 -394z"/>
<path d="M18475 4750 c-3 -5 39 -154 94 -332 55 -178 106 -345 114 -373 22
-72 264 -860 283 -920 9 -27 24 -77 34 -110 18 -59 143 -467 219 -715 22 -69
90 -290 152 -492 l112 -368 421 0 421 1 78 172 c166 370 284 674 451 1172 110
324 240 792 355 1275 25 106 129 624 133 665 l3 30 -355 0 -355 0 -8 -60 c-70
-504 -218 -1201 -363 -1699 -77 -266 -273 -869 -287 -883 -3 -2 -12 27 -21 64
-31 132 -96 419 -107 468 -6 28 -43 151 -81 275 -39 124 -74 241 -80 260 -5
19 -15 53 -23 75 -7 22 -27 85 -44 140 -16 55 -75 244 -129 420 -55 176 -139
446 -187 600 -47 154 -91 295 -96 313 l-11 32 -358 0 c-217 0 -361 -4 -365
-10z"/>
<path d="M24320 4730 c0 -17 7 -20 40 -20 l40 0 0 -110 0 -110 25 0 25 0 0
109 0 110 37 3 c27 2 39 8 41 21 3 15 -7 17 -102 17 -99 0 -106 -1 -106 -20z"/>
<path d="M24580 4621 c0 -124 1 -131 20 -131 22 0 22 3 25 117 2 100 5 98 63
-62 28 -79 47 -69 93 50 l38 100 1 -102 0 -103 25 0 25 0 0 131 0 130 -37 -3
c-36 -3 -37 -4 -71 -91 -19 -49 -36 -86 -39 -84 -2 3 -19 42 -37 88 -32 83
-33 84 -69 87 l-37 3 0 -130z"/>
</g>
</svg>
