<?xml version="1.0" standalone="no"?>
<!DOCTYPE svg PUBLIC "-//W3C//DTD SVG 20010904//EN"
 "http://www.w3.org/TR/2001/REC-SVG-20010904/DTD/svg10.dtd">
<svg version="1.0" xmlns="http://www.w3.org/2000/svg"
 width="900.000000pt" height="900.000000pt" viewBox="0 0 900.000000 900.000000"
 preserveAspectRatio="xMidYMid meet">

<g transform="translate(0.000000,900.000000) scale(0.100000,-0.100000)"
fill="#000000" stroke="none">
<path d="M2255 6663 c-33 -42 -75 -98 -94 -125 l-34 -48 -646 0 c-397 0 -671
-4 -710 -10 -154 -26 -255 -127 -281 -281 -14 -88 -14 -3330 0 -3418 26 -154
127 -255 281 -281 39 -6 312 -10 704 -10 l640 0 65 -88 c192 -259 492 -548
790 -759 429 -304 935 -512 1454 -598 566 -93 1124 -45 1676 144 389 132 730
321 1070 590 122 97 424 399 521 521 477 603 746 1309 776 2038 l6 152 -1746
0 -1747 0 -2 1003 -3 1002 -28 57 c-35 71 -110 140 -183 167 -54 21 -68 21
-1252 21 l-1197 -1 -60 -76z m380 -923 c194 -22 324 -65 469 -158 151 -96 251
-248 293 -445 23 -108 13 -298 -20 -397 -88 -260 -289 -449 -567 -534 -153
-46 -250 -56 -557 -56 l-283 0 0 -455 0 -455 -245 0 -245 0 0 1250 0 1250 528
3 c290 1 529 3 532 5 3 1 46 -3 95 -8z"/>
<path d="M1975 5339 c-3 -8 -4 -183 -3 -389 l3 -375 210 -3 c116 -2 254 2 309
8 84 9 109 16 177 51 94 49 162 107 191 163 19 35 22 57 21 142 -2 221 -82
334 -278 389 -83 23 -622 35 -630 14z"/>
</g>
</svg>
