<?xml version="1.0" standalone="no"?>
<!DOCTYPE svg PUBLIC "-//W3C//DTD SVG 20010904//EN"
 "http://www.w3.org/TR/2001/REC-SVG-20010904/DTD/svg10.dtd">
<svg version="1.0" xmlns="http://www.w3.org/2000/svg"
 width="900.000000pt" height="900.000000pt" viewBox="0 0 900.000000 900.000000"
 preserveAspectRatio="xMidYMid meet">

<g transform="translate(0.000000,900.000000) scale(0.100000,-0.100000)"
fill="#000000" stroke="none">
<path d="M4136 5732 c-2 -4 -57 -273 -121 -597 -64 -325 -146 -743 -183 -930
l-68 -340 220 -3 c120 -1 221 -1 223 1 2 2 50 235 106 518 l103 514 211 0
c237 0 256 -4 274 -64 9 -31 -2 -100 -71 -466 -45 -236 -84 -447 -87 -468 l-6
-37 234 2 234 3 82 480 c45 264 83 510 83 546 0 133 -64 231 -193 293 -112 55
-191 66 -457 66 -126 0 -230 3 -230 8 0 4 20 111 44 237 24 127 42 233 39 238
-6 9 -430 9 -437 -1z"/>
<path d="M2431 5203 c-6 -26 -74 -370 -151 -763 -78 -393 -154 -778 -169 -855
-16 -77 -32 -157 -35 -177 l-7 -38 221 0 c167 0 222 3 225 13 3 6 23 109 45
227 23 118 43 223 46 233 5 16 27 17 278 17 241 0 282 2 352 20 296 76 521
309 595 617 29 117 31 302 5 388 -54 180 -162 282 -361 341 -53 16 -117 18
-546 21 l-487 4 -11 -48z m771 -314 c72 -15 131 -51 160 -96 19 -32 23 -50 21
-113 -1 -91 -24 -193 -58 -260 -79 -155 -204 -209 -484 -210 l-143 0 5 23 c3
12 29 162 57 332 28 171 53 316 55 323 6 16 310 17 387 1z"/>
<path d="M5535 5238 c-2 -7 -11 -49 -19 -93 -8 -44 -89 -456 -180 -916 -91
-460 -166 -842 -166 -848 0 -8 61 -11 222 -9 l221 3 46 240 46 240 300 5 300
5 87 31 c282 101 482 332 542 626 20 97 21 284 1 357 -46 176 -164 289 -361
347 -52 15 -118 18 -547 21 -395 3 -488 2 -492 -9z m815 -362 c50 -19 94 -57
117 -101 12 -23 14 -50 10 -125 -13 -223 -99 -356 -267 -411 -53 -18 -97 -23
-239 -27 l-174 -4 6 28 c3 16 29 172 58 348 l53 318 195 -4 c152 -4 206 -9
241 -22z"/>
</g>
</svg>
